{"glyphs":{"0":{"ha":681,"x_min":0,"x_max":0,"o":"m 300 0 l 325 0 b 624 275 483 1 624 144 b 625 347 624 283 625 314 l 625 611 b 624 685 625 644 624 675 b 325 958 624 814 483 958 l 300 958 b 1 685 140 958 1 814 b 0 611 0 675 0 644 l 0 347 b 1 275 0 314 0 283 b 300 0 1 144 140 1 z m 300 38 b 93 324 119 38 94 229 l 93 635 b 300 921 94 729 119 921 l 325 921 b 532 635 506 921 531 729 l 532 324 b 325 38 531 229 506 38 z "},"1":{"ha":326,"x_min":0,"x_max":0,"o":"m 57 0 l 136 0 b 164 28 136 15 149 28 b 192 0 179 28 192 15 l 271 0 b 211 104 271 0 211 19 l 211 864 b 260 963 211 925 243 951 l 0 836 l 0 804 b 118 799 39 825 118 869 l 118 104 b 57 0 118 19 57 0 z "},"2":{"ha":607,"x_min":0,"x_max":0,"o":"m 0 0 l 100 0 b 128 28 100 15 113 28 b 156 0 143 28 156 15 l 539 0 l 539 168 b 417 54 539 76 472 54 l 314 54 b 235 103 246 54 203 46 b 522 615 349 306 378 354 b 421 936 596 747 517 896 b 126 897 325 978 197 967 b 82 961 104 919 88 943 l 82 657 b 400 913 126 825 301 978 b 410 631 465 868 474 754 b 104 103 307 431 153 188 b 64 43 89 79 79 57 b 0 0 32 10 0 0 z "},"3":{"ha":614,"x_min":0,"x_max":0,"o":"m 0 24 b 44 86 7 40 22 64 b 426 47 133 -25 346 -17 b 347 581 706 271 474 538 b 343 947 522 703 471 906 b 117 901 268 972 188 969 b 72 964 94 922 79 946 l 72 665 b 318 928 117 831 219 953 b 146 581 500 878 347 581 b 410 74 369 560 579 196 b 0 322 286 -14 46 157 z "},"4":{"ha":681,"x_min":0,"x_max":0,"o":"m 410 1 l 490 1 b 518 28 490 15 503 28 b 544 1 532 28 544 15 l 625 1 b 564 104 625 1 564 19 l 564 865 b 614 963 564 926 596 953 l 399 858 l 392 856 l 0 283 l 471 283 l 471 104 b 410 1 471 19 410 1 z m 139 376 l 453 835 b 471 799 464 831 471 819 l 471 376 z "},"5":{"ha":682,"x_min":0,"x_max":0,"o":"m 0 7 b 43 65 6 24 21 44 b 521 89 192 -17 403 -32 b 147 617 839 417 357 617 l 232 829 l 421 829 b 425 721 489 829 447 756 l 457 721 l 579 960 b 483 914 569 943 543 914 l 181 914 l 1 521 b 510 138 351 521 751 360 b 0 282 404 40 43 131 z "},"6":{"ha":682,"x_min":0,"x_max":0,"o":"m 625 386 b 326 661 625 515 486 660 l 300 661 b 94 575 222 660 149 625 l 94 635 b 296 921 96 728 121 917 l 315 921 b 510 739 440 921 490 828 l 400 743 b 404 728 400 743 401 743 b 615 614 528 726 608 633 b 613 685 614 646 614 675 b 315 958 613 814 474 958 l 296 958 b 3 685 139 954 3 813 b 1 613 3 676 1 644 l 1 386 b 0 314 1 378 0 346 l 3 314 l 3 275 b 301 0 3 146 142 1 l 326 0 b 625 275 486 1 625 146 b 626 306 626 297 626 304 l 626 314 b 625 386 626 346 626 378 z m 533 325 b 326 38 532 229 507 38 l 301 38 b 94 325 121 38 96 229 l 94 371 b 300 624 101 471 139 624 l 326 624 b 533 336 507 624 532 431 z m 615 614 b 615 611 615 614 615 613 z "},"7":{"ha":708,"x_min":0,"x_max":0,"o":"m 307 0 l 653 914 l 94 914 b 0 960 36 914 10 943 l 122 719 l 153 719 b 158 828 132 754 89 828 l 529 828 l 228 31 z "},"8":{"ha":678,"x_min":0,"x_max":0,"o":"m 299 0 l 324 0 b 622 275 483 1 622 146 b 372 586 622 460 501 539 b 486 643 408 608 454 621 b 310 960 618 739 551 960 b 199 563 38 960 -10 635 b 47 442 140 532 85 494 b 0 297 19 403 1 356 l 0 296 l 0 297 b 0 288 0 294 0 292 l 0 275 b 299 0 0 146 139 1 z m 301 608 b 253 622 285 614 268 618 b 310 939 50 676 106 940 b 301 608 589 939 474 679 z m 299 38 b 93 288 139 38 101 188 b 283 540 93 439 165 476 b 531 285 419 499 531 399 b 324 38 529 190 504 38 z "},"9":{"ha":682,"x_min":0,"x_max":0,"o":"m 624 646 l 624 685 b 325 960 624 814 483 958 l 300 960 b 1 685 140 958 1 814 b 0 654 0 663 0 654 l 0 646 b 1 574 0 613 0 582 b 300 299 1 443 140 300 l 326 299 b 532 385 404 299 478 333 l 532 325 b 331 38 531 231 506 42 l 311 38 b 117 219 186 38 136 131 l 226 217 b 222 232 226 217 225 217 b 11 344 99 233 18 328 b 14 275 11 314 13 283 b 311 0 14 146 153 1 l 331 0 b 624 275 488 4 624 147 b 625 347 624 283 625 315 l 625 574 b 626 646 625 582 626 613 z m 532 589 b 326 336 525 489 488 336 l 300 336 b 93 622 119 336 94 528 l 93 635 b 300 922 94 729 119 922 l 325 922 b 532 635 506 922 531 729 z m 11 344 b 11 347 11 346 11 346 z "}," ":{"ha":417,"x_min":0,"x_max":0,"o":""},"A":{"ha":590,"x_min":0,"x_max":0,"o":"m 576 -111 b 493 104 517 -94 493 19 l 493 774 l 493 781 l 493 785 b 285 968 489 886 400 968 b 82 800 200 968 118 933 b 6 699 67 744 40 708 b 61 646 46 699 61 689 l 61 104 b 0 1 61 19 0 1 l 81 1 b 107 28 81 15 92 28 b 135 1 122 28 135 15 l 215 1 b 154 104 215 1 154 19 l 154 183 b 401 503 154 183 260 475 l 401 104 b 340 1 401 19 340 1 l 419 1 b 447 28 419 15 432 28 b 475 1 463 28 475 15 b 460 -24 475 -10 469 -18 b 576 -111 492 -79 522 -111 z m 154 365 l 154 686 b 210 776 154 744 183 761 b 156 790 189 772 156 769 b 246 910 156 844 179 889 b 364 681 410 963 490 731 b 286 746 315 665 260 697 b 324 606 250 706 260 622 b 401 614 350 597 376 603 l 401 531 b 154 365 322 524 218 481 z "},"Á":{"ha":590,"x_min":0,"x_max":0,"o":"m 299 988 b 382 1001 328 1001 356 1007 b 456 1169 385 1015 400 1076 b 299 988 400 1119 342 1085 z m 576 -111 b 493 104 517 -94 493 19 l 493 774 l 493 781 l 493 785 b 285 968 489 886 400 968 b 82 800 200 968 118 933 b 6 699 67 744 40 708 b 61 646 46 699 61 689 l 61 104 b 0 1 61 19 0 1 l 81 1 b 107 28 81 15 92 28 b 135 1 122 28 135 15 l 215 1 b 154 104 215 1 154 19 l 154 183 b 401 503 154 183 260 475 l 401 104 b 340 1 401 19 340 1 l 419 1 b 447 28 419 15 432 28 b 475 1 463 28 475 15 b 460 -24 475 -10 469 -18 b 576 -111 492 -79 522 -111 z m 154 365 l 154 686 b 210 776 154 744 183 761 b 156 790 189 772 156 769 b 246 910 156 844 179 889 b 364 681 410 963 490 731 b 286 746 315 665 260 697 b 324 606 250 706 260 622 b 401 614 350 597 376 603 l 401 531 b 154 365 322 524 218 481 z "},"Â":{"ha":590,"x_min":0,"x_max":0,"o":"m 236 992 l 283 992 l 317 1049 l 350 992 l 397 992 l 394 999 l 374 1038 b 396 1079 356 1071 396 1079 l 238 1079 b 260 1038 238 1079 278 1071 l 239 999 z m 576 -111 b 493 104 517 -94 493 19 l 493 774 l 493 781 l 493 785 b 285 968 489 886 400 968 b 82 800 200 968 118 933 b 6 699 67 744 40 708 b 61 646 46 699 61 689 l 61 104 b 0 1 61 19 0 1 l 81 1 b 107 28 81 15 92 28 b 135 1 122 28 135 15 l 215 1 b 154 104 215 1 154 19 l 154 183 b 401 503 154 183 260 475 l 401 104 b 340 1 401 19 340 1 l 419 1 b 447 28 419 15 432 28 b 475 1 463 28 475 15 b 460 -24 475 -10 469 -18 b 576 -111 492 -79 522 -111 z m 154 365 l 154 686 b 210 776 154 744 183 761 b 156 790 189 772 156 769 b 246 910 156 844 179 889 b 364 681 410 963 490 731 b 286 746 315 665 260 697 b 324 606 250 706 260 622 b 401 614 350 597 376 603 l 401 531 b 154 365 322 524 218 481 z "},"Ä":{"ha":590,"x_min":0,"x_max":0,"o":"m 263 992 b 313 1035 263 992 272 1035 b 263 1078 272 1035 263 1078 b 213 1035 263 1078 253 1035 b 263 992 253 1035 263 992 z m 375 992 b 425 1035 375 992 385 1035 b 375 1078 385 1035 375 1078 b 325 1035 375 1078 365 1035 b 375 992 365 1035 375 992 z m 576 -111 b 493 104 517 -94 493 19 l 493 774 l 493 781 l 493 785 b 285 968 489 886 400 968 b 82 800 200 968 118 933 b 6 699 67 744 40 708 b 61 646 46 699 61 689 l 61 104 b 0 1 61 19 0 1 l 81 1 b 107 28 81 15 92 28 b 135 1 122 28 135 15 l 215 1 b 154 104 215 1 154 19 l 154 183 b 401 503 154 183 260 475 l 401 104 b 340 1 401 19 340 1 l 419 1 b 447 28 419 15 432 28 b 475 1 463 28 475 15 b 460 -24 475 -10 469 -18 b 576 -111 492 -79 522 -111 z m 154 365 l 154 686 b 210 776 154 744 183 761 b 156 790 189 772 156 769 b 246 910 156 844 179 889 b 364 681 410 963 490 731 b 286 746 315 665 260 697 b 324 606 250 706 260 622 b 401 614 350 597 376 603 l 401 531 b 154 365 322 524 218 481 z "},"À":{"ha":590,"x_min":0,"x_max":0,"o":"m 401 1001 b 244 1182 357 1099 299 1133 b 317 1015 299 1090 314 1029 b 401 1001 344 1021 372 1015 z m 576 -111 b 493 104 517 -94 493 19 l 493 774 l 493 781 l 493 785 b 285 968 489 886 400 968 b 82 800 200 968 118 933 b 6 699 67 744 40 708 b 61 646 46 699 61 689 l 61 104 b 0 1 61 19 0 1 l 81 1 b 107 28 81 15 92 28 b 135 1 122 28 135 15 l 215 1 b 154 104 215 1 154 19 l 154 183 b 401 503 154 183 260 475 l 401 104 b 340 1 401 19 340 1 l 419 1 b 447 28 419 15 432 28 b 475 1 463 28 475 15 b 460 -24 475 -10 469 -18 b 576 -111 492 -79 522 -111 z m 154 365 l 154 686 b 210 776 154 744 183 761 b 156 790 189 772 156 769 b 246 910 156 844 179 889 b 364 681 410 963 490 731 b 286 746 315 665 260 697 b 324 606 250 706 260 622 b 401 614 350 597 376 603 l 401 531 b 154 365 322 524 218 481 z "},"Å":{"ha":590,"x_min":0,"x_max":0,"o":"m 278 1050 b 339 1103 328 1050 339 1103 b 400 1050 339 1103 350 1050 b 339 1111 400 1083 372 1111 b 278 1050 304 1111 278 1083 z m 339 989 b 400 1050 372 989 400 1017 b 339 997 350 1050 339 997 b 278 1050 339 997 328 1050 b 339 989 278 1017 304 989 z m 576 -111 b 493 104 517 -94 493 19 l 493 774 l 493 781 l 493 785 b 285 968 489 886 400 968 b 82 800 200 968 118 933 b 6 699 67 744 40 708 b 61 646 46 699 61 689 l 61 104 b 0 1 61 19 0 1 l 81 1 b 107 28 81 15 92 28 b 135 1 122 28 135 15 l 215 1 b 154 104 215 1 154 19 l 154 183 b 401 503 154 183 260 475 l 401 104 b 340 1 401 19 340 1 l 419 1 b 447 28 419 15 432 28 b 475 1 463 28 475 15 b 460 -24 475 -10 469 -18 b 576 -111 492 -79 522 -111 z m 154 365 l 154 686 b 210 776 154 744 183 761 b 156 790 189 772 156 769 b 246 910 156 844 179 889 b 364 681 410 963 490 731 b 286 746 315 665 260 697 b 324 606 250 706 260 622 b 401 614 350 597 376 603 l 401 531 b 154 365 322 524 218 481 z "},"Ã":{"ha":590,"x_min":0,"x_max":0,"o":"m 186 989 b 303 1025 210 1018 226 1058 b 464 1065 419 974 464 1065 b 315 1069 464 1065 414 1028 b 274 1078 300 1076 286 1079 b 186 989 208 1076 186 989 z m 576 -111 b 493 104 517 -94 493 19 l 493 774 l 493 781 l 493 785 b 285 968 489 886 400 968 b 82 800 200 968 118 933 b 6 699 67 744 40 708 b 61 646 46 699 61 689 l 61 104 b 0 1 61 19 0 1 l 81 1 b 107 28 81 15 92 28 b 135 1 122 28 135 15 l 215 1 b 154 104 215 1 154 19 l 154 183 b 401 503 154 183 260 475 l 401 104 b 340 1 401 19 340 1 l 419 1 b 447 28 419 15 432 28 b 475 1 463 28 475 15 b 460 -24 475 -10 469 -18 b 576 -111 492 -79 522 -111 z m 154 365 l 154 686 b 210 776 154 744 183 761 b 156 790 189 772 156 769 b 246 910 156 844 179 889 b 364 681 410 963 490 731 b 286 746 315 665 260 697 b 324 606 250 706 260 622 b 401 614 350 597 376 603 l 401 531 b 154 365 322 524 218 481 z "},"Æ":{"ha":960,"x_min":0,"x_max":0,"o":"m 863 103 l 863 281 b 721 350 804 281 799 350 b 769 260 747 343 769 306 l 769 168 b 647 54 769 76 703 54 l 579 54 b 457 168 524 54 457 76 l 457 485 b 710 399 501 486 675 488 l 710 621 b 457 535 675 533 501 533 l 457 800 b 579 913 457 892 524 913 l 647 913 b 769 800 703 913 769 892 l 769 708 b 721 618 769 661 747 625 b 863 688 799 618 804 688 l 863 864 b 924 967 863 949 924 967 l 843 967 b 817 940 843 953 832 940 b 789 967 801 940 789 953 l 724 967 l 722 967 l 303 967 l 285 967 b 81 799 200 967 118 932 b 6 699 65 744 40 708 b 61 646 46 699 61 689 l 61 103 b 0 0 61 19 0 0 l 79 0 b 107 28 79 15 92 28 b 135 0 122 28 135 15 l 214 0 b 154 103 214 0 154 19 l 154 183 b 364 489 154 183 242 424 l 364 103 b 303 0 364 19 303 0 l 382 0 b 410 28 382 15 394 28 b 438 0 425 28 438 15 l 789 0 b 817 28 789 15 801 28 b 843 0 832 28 843 15 b 829 -24 843 -10 839 -19 b 946 -111 861 -81 892 -111 b 863 103 886 -96 863 18 z m 364 679 b 286 744 314 664 260 696 b 324 604 250 704 260 621 b 364 601 338 600 351 600 l 364 524 b 154 365 292 508 208 463 l 154 685 b 210 775 154 744 182 760 b 156 790 189 771 156 768 b 244 910 156 844 179 889 b 289 917 261 914 275 917 b 360 897 317 918 340 910 b 364 864 363 888 364 876 z "},"B":{"ha":610,"x_min":0,"x_max":0,"o":"m 465 615 b 503 739 488 646 503 688 l 503 842 b 279 968 500 949 435 968 l 65 968 b 125 865 65 968 125 950 l 125 490 b 275 0 -69 382 -47 0 b 596 289 446 0 596 97 l 596 425 b 465 615 594 510 557 589 z m 218 819 b 310 929 222 897 265 929 b 410 822 358 928 410 886 l 410 772 b 329 626 410 642 399 626 b 218 750 247 626 226 692 z m 503 292 b 261 67 503 99 356 67 b 125 457 33 75 -22 357 l 125 296 b 65 200 122 218 65 200 l 144 200 b 172 228 144 215 157 228 b 200 200 188 228 200 215 b 185 176 200 190 194 181 b 301 89 217 121 247 89 b 218 304 242 104 218 219 l 218 489 b 249 490 228 490 239 490 b 354 411 300 490 354 453 b 308 436 343 429 324 435 b 297 282 376 400 354 321 b 242 519 476 340 394 519 l 218 519 l 218 632 b 358 560 240 592 267 560 b 425 578 382 560 404 565 b 503 429 469 569 503 531 z "},"C":{"ha":597,"x_min":0,"x_max":0,"o":"m 500 103 l 500 332 b 561 435 500 417 561 435 l 482 435 b 454 408 482 419 469 408 b 426 435 439 408 426 419 b 440 460 426 446 432 454 b 325 547 410 515 379 547 b 407 332 385 531 407 417 l 407 263 b 386 113 407 181 408 149 b 226 89 353 64 275 61 b 147 450 142 139 147 257 l 147 685 b 203 775 147 744 176 760 b 149 790 182 771 149 768 b 239 910 149 844 172 889 b 357 679 403 961 483 729 b 279 744 308 664 253 696 b 317 604 243 704 253 621 b 472 701 382 586 444 635 b 278 967 526 835 425 967 b 75 799 193 967 111 932 b -1 699 60 743 33 707 b 54 646 39 699 54 689 l 54 379 b -1 325 54 336 39 325 b 75 225 33 317 60 281 b 293 -1 110 71 186 -1 l 426 -1 b 454 26 426 14 439 26 b 482 -1 469 26 482 14 b 467 -25 482 -11 476 -21 b 583 -112 499 -82 529 -112 b 500 103 524 -97 500 18 z "},"Ç":{"ha":597,"x_min":0,"x_max":0,"o":"m 501 103 l 501 332 b 563 436 501 417 563 436 l 482 436 b 454 408 482 421 469 408 b 428 436 439 408 428 421 b 442 460 428 446 433 456 b 326 547 410 515 379 547 b 408 332 385 532 408 417 l 408 264 b 388 114 408 181 408 150 b 228 89 354 65 276 61 b 147 450 142 139 147 258 l 147 685 b 204 776 147 744 176 760 b 150 790 182 772 150 769 b 239 910 149 844 172 889 b 358 679 404 963 483 731 b 281 746 308 665 254 697 b 318 604 243 706 253 622 b 474 703 382 588 446 636 b 278 968 528 835 425 968 b 75 799 194 968 113 932 b 0 699 60 744 35 708 b 56 646 40 699 56 689 l 56 379 b 0 326 56 336 40 326 b 75 226 35 317 60 281 l 75 225 b 231 10 103 104 157 33 b 296 -94 264 -6 326 -1 b 393 -207 250 -228 360 -250 b 342 -94 379 -219 293 -217 b 326 -1 363 -42 350 -14 l 428 -1 b 454 26 428 14 439 26 b 482 -1 469 26 482 14 b 468 -25 482 -11 476 -19 b 583 -112 500 -81 531 -112 b 501 103 525 -96 501 18 z "},"D":{"ha":608,"x_min":0,"x_max":0,"o":"m 404 968 l 279 968 l 64 968 b 125 874 64 968 122 950 l 125 490 b 275 0 -69 381 -47 0 b 594 289 446 0 594 97 l 594 785 b 404 968 594 917 496 968 z m 503 292 b 260 67 503 99 356 67 b 125 456 33 75 -22 357 l 125 304 b 64 200 125 219 64 200 l 144 200 b 172 228 144 215 157 228 b 199 200 186 228 199 215 b 185 176 199 190 193 181 b 300 89 217 121 247 89 b 218 296 243 104 219 213 l 218 489 b 249 490 228 490 238 490 b 354 411 300 490 354 453 b 307 436 343 429 324 435 b 297 282 376 400 353 321 b 242 519 476 340 394 519 l 218 519 l 218 808 b 342 922 222 894 288 922 b 503 785 469 922 501 879 z "},"E":{"ha":656,"x_min":0,"x_max":0,"o":"m 560 103 l 560 281 b 417 350 500 281 496 350 b 467 260 444 342 467 306 l 467 167 b 344 54 467 76 399 54 l 276 54 b 153 167 221 54 153 76 l 153 485 b 406 399 199 486 372 488 l 406 621 b 153 535 372 533 199 533 l 153 800 b 276 913 153 892 221 913 l 344 913 b 467 800 399 913 467 892 l 467 708 b 417 618 467 661 444 625 b 560 688 496 618 500 688 l 560 864 b 621 967 560 949 621 967 l 540 967 b 513 940 540 951 528 940 b 486 967 497 940 486 951 l 421 967 l 418 967 l 0 967 b 36 940 0 967 19 961 b 42 933 38 939 39 936 b 61 864 51 918 61 896 l 61 103 b 0 0 61 19 0 0 l 79 0 b 107 28 79 15 92 28 b 135 0 122 28 135 15 l 486 0 b 513 28 486 15 497 28 b 540 0 528 28 540 15 b 526 -24 540 -10 535 -19 b 642 -111 558 -81 589 -111 b 560 103 582 -96 560 18 z "},"É":{"ha":656,"x_min":0,"x_max":0,"o":"m 382 1001 b 456 1169 385 1015 400 1076 b 299 988 400 1119 342 1085 b 382 1001 328 1001 356 1007 z m 560 103 l 560 281 b 417 350 500 281 496 350 b 467 260 444 342 467 306 l 467 167 b 344 54 467 76 399 54 l 276 54 b 153 167 221 54 153 76 l 153 485 b 406 399 199 486 372 488 l 406 621 b 153 535 372 533 199 533 l 153 800 b 276 913 153 892 221 913 l 344 913 b 467 800 399 913 467 892 l 467 708 b 417 618 467 661 444 625 b 560 688 496 618 500 688 l 560 864 b 621 967 560 949 621 967 l 540 967 b 513 940 540 951 528 940 b 486 967 497 940 486 951 l 421 967 l 418 967 l 0 967 b 36 940 0 967 19 961 b 42 933 38 939 39 936 b 61 864 51 918 61 896 l 61 103 b 0 0 61 19 0 0 l 79 0 b 107 28 79 15 92 28 b 135 0 122 28 135 15 l 486 0 b 513 28 486 15 497 28 b 540 0 528 28 540 15 b 526 -24 540 -10 535 -19 b 642 -111 558 -81 589 -111 b 560 103 582 -96 560 18 z "},"Ê":{"ha":656,"x_min":0,"x_max":0,"o":"m 239 999 l 236 992 l 283 992 l 317 1049 l 350 992 l 397 992 l 394 999 l 374 1038 b 396 1079 356 1071 396 1079 l 238 1079 b 260 1038 238 1079 278 1071 z m 560 103 l 560 281 b 417 350 500 281 496 350 b 467 260 444 342 467 306 l 467 167 b 344 54 467 76 399 54 l 276 54 b 153 167 221 54 153 76 l 153 485 b 406 399 199 486 372 488 l 406 621 b 153 535 372 533 199 533 l 153 800 b 276 913 153 892 221 913 l 344 913 b 467 800 399 913 467 892 l 467 708 b 417 618 467 661 444 625 b 560 688 496 618 500 688 l 560 864 b 621 967 560 949 621 967 l 540 967 b 513 940 540 951 528 940 b 486 967 497 940 486 951 l 421 967 l 418 967 l 0 967 b 36 940 0 967 19 961 b 42 933 38 939 39 936 b 61 864 51 918 61 896 l 61 103 b 0 0 61 19 0 0 l 79 0 b 107 28 79 15 92 28 b 135 0 122 28 135 15 l 486 0 b 513 28 486 15 497 28 b 540 0 528 28 540 15 b 526 -24 540 -10 535 -19 b 642 -111 558 -81 589 -111 b 560 103 582 -96 560 18 z "},"Ë":{"ha":656,"x_min":0,"x_max":0,"o":"m 263 992 b 313 1035 263 992 272 1035 b 263 1078 272 1035 263 1078 b 213 1035 263 1078 253 1035 b 263 992 253 1035 263 992 z m 375 992 b 425 1035 375 992 385 1035 b 375 1078 385 1035 375 1078 b 325 1035 375 1078 365 1035 b 375 992 365 1035 375 992 z m 560 103 l 560 281 b 417 350 500 281 496 350 b 467 260 444 342 467 306 l 467 167 b 344 54 467 76 399 54 l 276 54 b 153 167 221 54 153 76 l 153 485 b 406 399 199 486 372 488 l 406 621 b 153 535 372 533 199 533 l 153 800 b 276 913 153 892 221 913 l 344 913 b 467 800 399 913 467 892 l 467 708 b 417 618 467 661 444 625 b 560 688 496 618 500 688 l 560 864 b 621 967 560 949 621 967 l 540 967 b 513 940 540 951 528 940 b 486 967 497 940 486 951 l 421 967 l 418 967 l 0 967 b 36 940 0 967 19 961 b 42 933 38 939 39 936 b 61 864 51 918 61 896 l 61 103 b 0 0 61 19 0 0 l 79 0 b 107 28 79 15 92 28 b 135 0 122 28 135 15 l 486 0 b 513 28 486 15 497 28 b 540 0 528 28 540 15 b 526 -24 540 -10 535 -19 b 642 -111 558 -81 589 -111 b 560 103 582 -96 560 18 z "},"È":{"ha":656,"x_min":0,"x_max":0,"o":"m 401 1001 b 244 1182 357 1099 299 1133 b 317 1015 299 1090 314 1029 b 401 1001 344 1021 372 1015 z m 560 103 l 560 281 b 417 350 500 281 496 350 b 467 260 444 342 467 306 l 467 167 b 344 54 467 76 399 54 l 276 54 b 153 167 221 54 153 76 l 153 485 b 406 399 199 486 372 488 l 406 621 b 153 535 372 533 199 533 l 153 800 b 276 913 153 892 221 913 l 344 913 b 467 800 399 913 467 892 l 467 708 b 417 618 467 661 444 625 b 560 688 496 618 500 688 l 560 864 b 621 967 560 949 621 967 l 540 967 b 513 940 540 951 528 940 b 486 967 497 940 486 951 l 421 967 l 418 967 l 0 967 b 36 940 0 967 19 961 b 42 933 38 939 39 936 b 61 864 51 918 61 896 l 61 103 b 0 0 61 19 0 0 l 79 0 b 107 28 79 15 92 28 b 135 0 122 28 135 15 l 486 0 b 513 28 486 15 497 28 b 540 0 528 28 540 15 b 526 -24 540 -10 535 -19 b 642 -111 558 -81 589 -111 b 560 103 582 -96 560 18 z "},"F":{"ha":654,"x_min":0,"x_max":0,"o":"m 525 990 b 539 967 533 986 539 976 b 513 939 539 951 528 939 b 485 967 497 939 485 951 l 419 967 l 413 967 l -1 967 b 35 940 -1 967 18 961 b 40 933 36 938 39 936 b 60 864 51 918 60 894 l 60 103 b -1 0 60 18 -1 0 l 78 0 b 106 26 78 15 90 26 b 133 0 121 26 133 15 l 214 0 b 153 103 214 0 153 18 l 153 483 b 404 399 197 486 371 486 l 404 621 b 153 535 371 532 197 533 l 153 800 b 275 913 153 890 219 913 l 343 913 b 465 800 399 913 465 890 l 465 707 b 417 617 465 661 443 624 b 558 686 494 617 499 686 l 558 864 b 640 1078 558 949 582 1063 b 525 990 588 1078 557 1047 z "},"G":{"ha":596,"x_min":0,"x_max":0,"o":"m 500 103 l 500 332 b 561 436 500 417 561 436 l 481 436 b 453 408 481 421 468 408 b 426 436 438 408 426 421 b 440 460 426 446 432 456 b 183 508 340 460 243 568 b 407 332 229 536 407 419 l 407 264 b 386 114 407 182 407 150 b 226 90 353 65 275 61 b 146 451 140 139 146 258 l 146 686 b 203 776 146 744 175 760 b 149 790 181 772 149 769 b 238 910 147 844 171 889 b 357 681 403 963 482 731 b 279 746 307 665 251 697 b 317 604 242 706 251 622 b 471 703 381 588 444 636 b 276 968 526 836 424 968 b 74 800 193 968 111 932 b -1 699 58 744 33 708 b 53 646 38 699 53 689 l 53 379 b -1 326 53 336 38 326 b 74 226 33 317 58 281 b 293 0 108 72 186 0 l 426 0 b 453 26 426 15 438 26 b 481 0 468 26 481 15 b 467 -25 481 -11 475 -19 b 582 -112 499 -81 529 -112 b 500 103 522 -96 500 18 z "},"H":{"ha":657,"x_min":0,"x_max":0,"o":"m 0 0 l 81 0 b 107 28 81 15 92 28 b 135 0 122 28 135 15 l 215 0 b 154 104 215 0 154 19 l 154 399 b 311 485 183 481 235 485 b 467 399 386 485 450 460 l 467 104 b 407 0 467 19 407 0 l 486 0 b 514 28 486 15 499 28 b 542 0 529 28 542 15 l 621 0 b 560 104 621 0 560 19 l 560 864 b 643 1079 560 949 583 1063 b 526 992 589 1079 558 1047 b 542 968 536 986 542 978 b 514 940 542 953 529 940 b 486 968 499 940 486 953 l 407 968 b 467 864 407 968 467 949 l 467 621 b 311 536 438 540 386 536 b 154 621 235 536 171 560 l 154 864 b 215 968 154 949 215 968 l 0 968 b 61 864 0 968 61 949 l 61 104 b 0 0 61 19 0 0 z "},"I":{"ha":250,"x_min":0,"x_max":0,"o":"m 236 -111 b 153 104 176 -94 153 19 l 153 864 b 214 968 153 949 214 968 l 0 968 b 60 864 0 968 60 949 l 60 104 b 0 1 60 19 0 1 l 79 1 b 107 28 79 15 92 28 b 135 1 122 28 135 15 b 119 -24 135 -10 129 -18 b 236 -111 151 -79 182 -111 z "},"Î":{"ha":250,"x_min":0,"x_max":0,"o":"m 28 992 l 75 992 l 108 1049 l 142 992 l 189 992 l 186 999 l 165 1038 b 188 1079 147 1071 188 1079 l 29 1079 b 51 1038 29 1079 69 1071 l 31 999 z m 236 -111 b 153 104 176 -94 153 19 l 153 864 b 214 968 153 949 214 968 l 0 968 b 60 864 0 968 60 949 l 60 104 b 0 1 60 19 0 1 l 79 1 b 107 28 79 15 92 28 b 135 1 122 28 135 15 b 119 -24 135 -10 129 -18 b 236 -111 151 -79 182 -111 z "},"Ï":{"ha":250,"x_min":0,"x_max":0,"o":"m 54 992 b 104 1035 54 992 64 1035 b 54 1078 64 1035 54 1078 b 4 1035 54 1078 44 1035 b 54 992 44 1035 54 992 z m 167 992 b 217 1035 167 992 176 1035 b 167 1078 176 1035 167 1078 b 117 1035 167 1078 157 1035 b 167 992 157 1035 167 992 z m 236 -111 b 153 104 176 -94 153 19 l 153 864 b 214 968 153 949 214 968 l 0 968 b 60 864 0 968 60 949 l 60 104 b 0 1 60 19 0 1 l 79 1 b 107 28 79 15 92 28 b 135 1 122 28 135 15 b 119 -24 135 -10 129 -18 b 236 -111 151 -79 182 -111 z "},"Ì":{"ha":250,"x_min":0,"x_max":0,"o":"m 165 1001 b 8 1182 121 1099 63 1133 b 81 1015 63 1090 78 1029 b 165 1001 108 1021 136 1015 z m 236 -111 b 153 104 176 -94 153 19 l 153 864 b 214 968 153 949 214 968 l 0 968 b 60 864 0 968 60 949 l 60 104 b 0 1 60 19 0 1 l 79 1 b 107 28 79 15 92 28 b 135 1 122 28 135 15 b 119 -24 135 -10 129 -18 b 236 -111 151 -79 182 -111 z "},"J":{"ha":604,"x_min":0,"x_max":0,"o":"m 268 0 b 488 226 375 0 453 72 b 563 326 503 281 529 317 b 508 379 524 326 508 336 l 508 864 b 590 1079 508 949 532 1063 b 475 992 538 1079 507 1047 b 489 967 483 986 489 976 b 461 939 489 951 476 939 b 435 967 446 939 435 951 l 354 967 b 415 864 354 967 415 947 l 415 456 b 336 90 415 260 422 140 b 176 114 286 61 210 65 b 156 224 158 143 156 171 b 154 264 154 236 154 249 l 154 332 b 378 508 154 419 332 536 b 333 526 364 522 350 526 b 121 460 275 526 200 460 b 136 436 131 456 136 446 b 108 408 136 421 124 408 b 81 436 93 408 81 421 l 1 436 b 63 332 1 436 63 417 l 63 224 b 268 0 65 72 153 0 z "},"K":{"ha":556,"x_min":0,"x_max":0,"o":"m 425 106 l 222 485 l 401 819 l 425 865 b 542 968 471 949 542 968 l 326 968 b 332 865 326 968 378 949 l 308 819 l 176 572 l 153 529 l 153 865 b 236 1081 153 950 176 1064 b 119 993 182 1081 151 1049 b 135 968 129 988 135 979 b 107 940 135 953 122 940 b 79 968 92 940 79 953 l 0 968 b 61 865 0 968 61 949 l 61 104 b 0 0 61 19 0 0 l 79 0 b 107 28 79 15 92 28 b 135 0 122 28 135 15 l 214 0 b 153 104 214 0 153 19 l 153 356 l 176 399 l 332 106 b 326 1 378 21 326 1 l 393 1 b 421 28 394 17 406 28 b 449 1 435 28 447 17 l 542 1 b 425 106 542 1 471 21 z "},"L":{"ha":654,"x_min":0,"x_max":0,"o":"m 557 103 l 557 279 b 415 349 499 279 493 349 b 464 258 442 342 464 306 l 464 167 b 342 54 464 75 397 53 l 274 54 b 151 167 218 54 151 75 l 151 863 b 213 967 151 947 213 967 l -3 967 b 58 863 -3 967 58 947 l 58 103 b -3 -1 58 18 -3 -1 l 78 -1 b 104 26 78 14 90 26 b 132 -1 119 26 132 14 l 483 -1 b 511 26 483 14 496 26 b 539 -1 526 26 539 14 b 524 -25 539 -11 533 -21 b 640 -112 556 -81 586 -112 b 557 103 581 -97 557 18 z "},"M":{"ha":732,"x_min":0,"x_max":0,"o":"m 718 -112 b 635 103 658 -96 635 18 l 635 863 b 696 967 635 947 696 967 l 482 967 l 483 965 l 347 669 l 211 965 b 214 967 213 967 214 967 l 0 967 b 60 863 0 967 60 947 l 60 103 b 0 0 60 18 0 0 l 79 0 b 107 26 79 14 92 26 b 135 0 122 26 135 14 l 214 0 b 153 103 214 0 153 18 l 153 771 b 190 844 153 899 171 879 l 321 535 b 353 343 333 503 389 371 b 393 569 464 407 414 514 l 506 844 b 542 771 524 879 542 899 l 542 103 b 482 0 542 18 482 0 l 561 0 b 589 26 561 14 574 26 b 617 0 604 26 617 14 b 601 -25 617 -11 611 -19 b 718 -112 633 -81 664 -112 z "},"N":{"ha":660,"x_min":0,"x_max":0,"o":"m 646 -111 b 563 103 586 -96 563 18 l 563 864 b 624 967 563 949 624 967 l 410 967 b 471 864 410 967 471 949 l 471 464 b 214 967 417 665 138 681 l 0 967 b 61 864 0 967 61 949 l 61 103 b 0 0 61 19 0 0 l 79 0 b 107 28 79 15 92 28 b 135 0 122 28 135 15 l 214 0 b 153 103 214 0 153 19 l 153 672 b 471 172 208 517 397 543 l 471 103 b 410 0 471 19 410 0 l 489 0 b 517 28 489 15 501 28 b 544 0 532 28 544 15 b 529 -24 544 -10 539 -19 b 646 -111 561 -81 592 -111 z "},"Ñ":{"ha":660,"x_min":0,"x_max":0,"o":"m 186 989 b 303 1025 210 1018 226 1058 b 464 1065 419 974 464 1065 b 315 1069 464 1065 414 1028 b 274 1078 300 1076 286 1079 b 186 989 208 1076 186 989 z m 646 -111 b 563 103 586 -96 563 18 l 563 864 b 624 967 563 949 624 967 l 410 967 b 471 864 410 967 471 949 l 471 464 b 214 967 417 665 138 681 l 0 967 b 61 864 0 967 61 949 l 61 103 b 0 0 61 19 0 0 l 79 0 b 107 28 79 15 92 28 b 135 0 122 28 135 15 l 214 0 b 153 103 214 0 153 19 l 153 672 b 471 172 208 517 397 543 l 471 103 b 410 0 471 19 410 0 l 489 0 b 517 28 489 15 501 28 b 544 0 532 28 544 15 b 529 -24 544 -10 539 -19 b 646 -111 561 -81 592 -111 z "},"O":{"ha":576,"x_min":0,"x_max":0,"o":"m 294 0 b 501 257 413 0 501 67 l 501 628 b 563 732 501 713 563 732 l 482 732 b 278 969 513 854 415 969 b 75 800 194 969 113 933 b 0 700 60 746 33 710 b 54 647 39 700 54 690 l 54 503 l 56 503 l 56 381 b 0 328 56 338 39 328 b 75 228 35 318 60 282 b 294 0 110 72 188 0 z m 221 79 b 147 457 133 129 147 261 l 147 686 b 204 776 147 746 176 761 b 150 792 182 772 150 769 b 239 911 149 846 172 890 b 283 919 254 917 269 918 b 357 681 417 921 472 726 b 279 746 308 665 253 697 b 318 606 243 706 253 622 b 408 622 350 597 381 604 l 408 560 l 408 547 b 371 100 408 399 417 153 b 221 79 332 54 269 51 z "},"Ó":{"ha":576,"x_min":0,"x_max":0,"o":"m 299 988 b 382 1001 328 1001 356 1007 b 456 1169 385 1015 400 1076 b 299 988 400 1119 342 1085 z m 294 0 b 501 257 413 0 501 67 l 501 628 b 563 732 501 713 563 732 l 482 732 b 278 969 513 854 415 969 b 75 800 194 969 113 933 b 0 700 60 746 33 710 b 54 647 39 700 54 690 l 54 503 l 56 503 l 56 381 b 0 328 56 338 39 328 b 75 228 35 318 60 282 b 294 0 110 72 188 0 z m 221 79 b 147 457 133 129 147 261 l 147 686 b 204 776 147 746 176 761 b 150 792 182 772 150 769 b 239 911 149 846 172 890 b 283 919 254 917 269 918 b 357 681 417 921 472 726 b 279 746 308 665 253 697 b 318 606 243 706 253 622 b 408 622 350 597 381 604 l 408 560 l 408 547 b 371 100 408 399 417 153 b 221 79 332 54 269 51 z "},"Ô":{"ha":576,"x_min":0,"x_max":0,"o":"m 181 992 l 228 992 l 261 1049 l 294 992 l 342 992 l 339 999 l 318 1038 b 340 1079 300 1071 340 1079 l 182 1079 b 204 1038 182 1079 222 1071 l 183 999 z m 294 0 b 501 257 413 0 501 67 l 501 628 b 563 732 501 713 563 732 l 482 732 b 278 969 513 854 415 969 b 75 800 194 969 113 933 b 0 700 60 746 33 710 b 54 647 39 700 54 690 l 54 503 l 56 503 l 56 381 b 0 328 56 338 39 328 b 75 228 35 318 60 282 b 294 0 110 72 188 0 z m 221 79 b 147 457 133 129 147 261 l 147 686 b 204 776 147 746 176 761 b 150 792 182 772 150 769 b 239 911 149 846 172 890 b 283 919 254 917 269 918 b 357 681 417 921 472 726 b 279 746 308 665 253 697 b 318 606 243 706 253 622 b 408 622 350 597 381 604 l 408 560 l 408 547 b 371 100 408 399 417 153 b 221 79 332 54 269 51 z "},"Ö":{"ha":576,"x_min":0,"x_max":0,"o":"m 235 992 b 285 1035 235 992 244 1035 b 235 1078 244 1035 235 1078 b 185 1035 235 1078 225 1035 b 235 992 225 1035 235 992 z m 347 992 b 397 1035 347 992 357 1035 b 347 1078 357 1035 347 1078 b 297 1035 347 1078 338 1035 b 347 992 338 1035 347 992 z m 294 0 b 501 257 413 0 501 67 l 501 628 b 563 732 501 713 563 732 l 482 732 b 278 969 513 854 415 969 b 75 800 194 969 113 933 b 0 700 60 746 33 710 b 54 647 39 700 54 690 l 54 503 l 56 503 l 56 381 b 0 328 56 338 39 328 b 75 228 35 318 60 282 b 294 0 110 72 188 0 z m 221 79 b 147 457 133 129 147 261 l 147 686 b 204 776 147 746 176 761 b 150 792 182 772 150 769 b 239 911 149 846 172 890 b 283 919 254 917 269 918 b 357 681 417 921 472 726 b 279 746 308 665 253 697 b 318 606 243 706 253 622 b 408 622 350 597 381 604 l 408 560 l 408 547 b 371 100 408 399 417 153 b 221 79 332 54 269 51 z "},"Ò":{"ha":576,"x_min":0,"x_max":0,"o":"m 318 1001 b 161 1182 274 1099 215 1133 b 233 1015 215 1090 231 1029 b 318 1001 261 1021 289 1015 z m 294 0 b 501 257 413 0 501 67 l 501 628 b 563 732 501 713 563 732 l 482 732 b 278 969 513 854 415 969 b 75 800 194 969 113 933 b 0 700 60 746 33 710 b 54 647 39 700 54 690 l 54 503 l 56 503 l 56 381 b 0 328 56 338 39 328 b 75 228 35 318 60 282 b 294 0 110 72 188 0 z m 221 79 b 147 457 133 129 147 261 l 147 686 b 204 776 147 746 176 761 b 150 792 182 772 150 769 b 239 911 149 846 172 890 b 283 919 254 917 269 918 b 357 681 417 921 472 726 b 279 746 308 665 253 697 b 318 606 243 706 253 622 b 408 622 350 597 381 604 l 408 560 l 408 547 b 371 100 408 399 417 153 b 221 79 332 54 269 51 z "},"Ø":{"ha":576,"x_min":0,"x_max":0,"o":"m 0 -67 l 244 -67 b 242 -65 244 -67 243 -67 b 221 -50 238 -64 229 -60 l 217 -44 b 208 -29 214 -40 211 -35 b 203 22 203 -17 201 0 b 294 0 231 7 261 0 b 501 256 414 0 501 65 l 501 628 b 563 732 501 713 563 732 l 482 732 b 450 888 497 789 483 844 l 460 918 b 513 1006 471 960 493 988 b 563 1036 539 1029 563 1036 l 318 1036 b 360 954 318 1036 364 1019 b 279 968 335 963 308 968 b 75 800 194 968 113 933 b 0 699 60 744 35 708 b 56 646 40 699 56 689 l 56 381 b 0 326 56 338 40 326 b 76 226 35 318 60 282 b 119 107 86 179 101 139 l 104 51 b 0 -67 76 -46 0 -67 z m 151 218 b 149 457 144 281 149 361 l 149 686 b 204 776 149 744 176 761 b 150 792 183 772 150 769 b 239 911 150 846 174 889 b 283 918 254 915 269 918 b 349 901 308 918 331 913 l 321 804 l 289 692 b 281 746 274 704 268 722 b 272 638 256 718 253 671 z m 400 711 l 419 781 b 400 711 421 756 414 731 z m 221 79 b 218 81 219 79 219 81 l 242 165 l 369 604 b 408 622 383 607 396 614 l 408 558 l 408 547 b 371 99 408 399 417 153 b 221 79 333 54 269 50 z "},"Õ":{"ha":576,"x_min":0,"x_max":0,"o":"m 186 989 b 303 1025 210 1018 226 1058 b 464 1065 419 974 464 1065 b 315 1069 464 1065 414 1028 b 274 1078 300 1076 286 1079 b 186 989 208 1076 186 989 z m 294 0 b 501 257 413 0 501 67 l 501 628 b 563 732 501 713 563 732 l 482 732 b 278 969 513 854 415 969 b 75 800 194 969 113 933 b 0 700 60 746 33 710 b 54 647 39 700 54 690 l 54 503 l 56 503 l 56 381 b 0 328 56 338 39 328 b 75 228 35 318 60 282 b 294 0 110 72 188 0 z m 221 79 b 147 457 133 129 147 261 l 147 686 b 204 776 147 746 176 761 b 150 792 182 772 150 769 b 239 911 149 846 172 890 b 283 919 254 917 269 918 b 357 681 417 921 472 726 b 279 746 308 665 253 697 b 318 606 243 706 253 622 b 408 622 350 597 381 604 l 408 560 l 408 547 b 371 100 408 399 417 153 b 221 79 332 54 269 51 z "},"Œ":{"ha":935,"x_min":0,"x_max":0,"o":"m 838 104 l 838 281 b 696 350 779 281 774 350 b 746 260 722 343 746 307 l 746 168 b 622 56 746 76 678 56 l 554 56 b 432 168 499 56 432 76 l 432 486 b 685 400 476 488 650 488 l 685 622 b 432 536 650 533 476 535 l 432 800 b 554 914 432 892 499 914 l 622 914 b 746 800 678 914 746 892 l 746 708 b 696 618 746 663 722 626 b 838 688 774 618 779 688 l 838 865 b 899 968 838 949 899 968 l 819 968 b 792 940 819 953 807 940 b 764 968 776 940 764 953 l 699 968 l 697 968 l 278 968 b 75 799 194 968 113 933 b 0 699 60 744 35 708 b 56 646 39 699 56 689 l 56 381 b 0 326 56 338 40 326 b 75 226 35 318 60 282 b 294 0 110 72 188 0 b 319 1 303 0 311 0 l 358 1 b 386 28 358 15 371 28 b 413 1 400 28 413 15 l 764 1 b 792 28 764 15 776 28 b 819 1 807 28 819 15 b 804 -24 819 -10 814 -18 b 921 -111 836 -79 867 -111 b 838 104 861 -94 838 19 z m 339 676 b 281 746 296 674 257 703 b 318 604 243 706 253 622 b 339 601 325 603 332 601 l 339 104 b 336 72 339 92 338 81 b 221 78 300 54 256 58 b 147 457 133 129 147 261 l 147 686 b 204 776 147 744 176 760 b 150 790 182 772 150 769 b 239 910 149 844 172 889 b 283 918 254 915 269 918 b 332 910 301 918 318 915 b 339 865 336 897 339 882 z "},"P":{"ha":525,"x_min":0,"x_max":0,"o":"m 238 -111 b 154 103 178 -96 154 18 l 154 438 b 321 365 175 397 229 365 b 511 544 394 365 511 429 l 511 836 b 215 967 511 983 324 965 l 0 967 b 61 864 0 967 61 949 l 61 103 b 1 0 61 19 1 0 l 81 0 b 108 28 81 15 93 28 b 136 0 124 28 136 15 b 121 -24 136 -10 131 -19 b 238 -111 153 -81 183 -111 z m 292 432 b 154 557 208 432 163 497 l 154 807 b 289 913 163 872 229 913 b 418 821 338 913 418 885 l 418 578 b 292 432 418 447 361 432 z "},"Q":{"ha":575,"x_min":0,"x_max":0,"o":"m 413 -111 b 331 63 361 -97 338 -14 b 500 317 431 76 500 146 l 500 628 b 561 731 500 711 561 731 l 482 731 b 278 968 513 853 414 968 b 75 799 193 968 111 932 b -1 699 60 744 33 708 b 54 646 39 699 54 689 l 54 440 b -1 388 54 397 39 388 b 75 288 33 378 60 342 l 75 286 b 232 69 103 164 157 93 b 175 0 219 14 175 0 l 256 0 b 283 28 256 15 268 28 b 310 0 299 28 310 15 b 296 -24 310 -10 304 -19 b 413 -111 328 -79 358 -111 z m 236 131 l 219 139 b 147 547 133 189 147 351 l 147 685 b 203 776 147 744 176 760 b 149 790 182 771 149 768 b 238 910 149 844 172 889 b 282 918 254 915 268 917 b 357 679 417 921 471 725 b 279 746 308 664 253 696 b 317 604 243 706 253 622 b 407 621 349 596 381 603 l 407 558 b 408 546 407 556 407 551 b 369 160 408 397 415 213 b 329 131 358 146 344 136 l 329 247 b 188 317 269 247 265 317 b 236 226 214 310 236 274 z "},"R":{"ha":579,"x_min":0,"x_max":0,"o":"m 236 -112 b 153 103 176 -96 153 18 l 153 561 b 254 490 171 526 193 499 l 378 103 b 350 0 406 19 350 0 l 565 0 b 471 103 565 0 499 19 l 344 499 b 438 668 396 522 438 581 l 438 840 l 436 840 b 214 967 435 947 369 967 l 0 967 b 60 864 0 967 60 947 l 60 344 l 61 344 l 61 103 b 0 0 61 19 0 0 l 79 0 b 107 28 79 15 92 28 b 135 0 122 28 135 15 b 119 -25 135 -10 129 -19 b 236 -112 151 -81 182 -112 z m 264 556 b 153 682 181 556 160 621 l 153 807 b 244 928 153 893 197 928 b 344 821 293 926 344 885 l 344 701 b 264 556 344 571 333 556 z "},"S":{"ha":625,"x_min":0,"x_max":0,"o":"m 529 104 l 529 306 b 175 686 529 503 175 556 b 232 778 175 746 204 761 b 178 792 210 772 178 769 b 267 911 176 846 200 890 b 386 681 432 964 511 731 b 308 746 336 665 282 697 b 346 606 271 707 281 624 b 501 704 410 589 485 633 b 306 969 535 856 410 969 b 71 725 107 969 71 821 b 150 551 71 608 122 571 b 436 264 246 488 436 407 b 415 115 436 182 436 151 b 256 90 382 65 304 63 b 176 329 190 129 178 207 b 236 422 181 406 236 422 l 157 422 b 129 396 157 408 144 396 b 101 422 114 396 101 408 b 117 447 101 433 107 442 b 0 535 85 503 54 535 b 81 360 50 521 75 436 b 28 326 76 333 60 326 b 103 226 63 318 88 282 b 322 0 138 72 215 0 l 456 0 b 482 28 456 15 467 28 b 510 0 497 28 510 15 b 496 -24 510 -10 504 -19 b 611 -111 528 -79 558 -111 b 529 104 553 -96 529 19 z "},"T":{"ha":658,"x_min":0,"x_max":0,"o":"m 451 -111 b 368 104 392 -96 368 19 l 368 800 b 429 926 368 881 400 926 b 490 800 460 926 490 881 l 490 588 b 440 497 490 542 468 504 b 603 622 519 497 543 622 b 583 658 592 631 583 638 l 583 864 b 644 968 583 949 644 968 l 564 968 b 536 940 564 953 551 940 b 510 968 522 940 510 953 l 0 968 b 61 864 0 968 61 949 l 61 542 b 42 507 61 522 53 514 b 204 382 101 507 125 382 b 154 472 176 389 154 425 l 154 800 b 215 926 154 881 185 926 b 276 800 244 926 276 881 l 276 104 b 215 0 276 19 215 0 l 294 0 b 322 28 294 15 307 28 b 350 0 338 28 350 15 b 335 -24 350 -10 344 -19 b 451 -111 367 -81 397 -111 z "},"U":{"ha":599,"x_min":0,"x_max":0,"o":"m 294 0 b 501 256 414 0 501 65 l 501 863 b 585 1078 501 947 525 1061 b 468 990 531 1078 500 1046 b 483 965 478 985 483 975 b 456 938 483 950 471 938 b 428 965 440 938 428 950 l 349 965 b 408 863 349 965 408 946 l 408 501 b 378 93 410 353 419 140 b 224 68 340 49 272 40 b 147 457 138 118 149 260 l 147 863 b 208 965 147 946 208 965 l -6 965 b 56 863 -6 965 56 946 l 56 379 b 0 326 56 338 40 326 b 75 226 35 318 60 282 b 294 0 110 72 188 0 z "},"Ú":{"ha":599,"x_min":0,"x_max":0,"o":"m 243 988 b 326 1001 272 1001 300 1007 b 400 1169 329 1015 344 1076 b 243 988 344 1119 286 1085 z m 294 0 b 501 256 414 0 501 65 l 501 863 b 585 1078 501 947 525 1061 b 468 990 531 1078 500 1046 b 483 965 478 985 483 975 b 456 938 483 950 471 938 b 428 965 440 938 428 950 l 349 965 b 408 863 349 965 408 946 l 408 501 b 378 93 410 353 419 140 b 224 68 340 49 272 40 b 147 457 138 118 149 260 l 147 863 b 208 965 147 946 208 965 l -6 965 b 56 863 -6 965 56 946 l 56 379 b 0 326 56 338 40 326 b 75 226 35 318 60 282 b 294 0 110 72 188 0 z "},"Û":{"ha":599,"x_min":0,"x_max":0,"o":"m 194 992 l 242 992 l 275 1049 l 308 992 l 356 992 l 353 999 l 332 1038 b 354 1079 314 1071 354 1079 l 196 1079 b 218 1038 196 1079 236 1071 l 197 999 z m 294 0 b 501 256 414 0 501 65 l 501 863 b 585 1078 501 947 525 1061 b 468 990 531 1078 500 1046 b 483 965 478 985 483 975 b 456 938 483 950 471 938 b 428 965 440 938 428 950 l 349 965 b 408 863 349 965 408 946 l 408 501 b 378 93 410 353 419 140 b 224 68 340 49 272 40 b 147 457 138 118 149 260 l 147 863 b 208 965 147 946 208 965 l -6 965 b 56 863 -6 965 56 946 l 56 379 b 0 326 56 338 40 326 b 75 226 35 318 60 282 b 294 0 110 72 188 0 z "},"Ü":{"ha":599,"x_min":0,"x_max":0,"o":"m 294 0 b 501 256 414 0 501 65 l 501 863 b 585 1078 501 947 525 1061 b 468 990 531 1078 500 1046 b 483 965 478 985 483 975 b 456 938 483 950 471 938 b 428 965 440 938 428 950 l 349 965 b 408 863 349 965 408 946 l 408 501 b 378 93 410 353 419 140 b 224 68 340 49 272 40 b 147 457 138 118 149 260 l 147 863 b 208 965 147 946 208 965 l -6 965 b 56 863 -6 965 56 946 l 56 379 b 0 326 56 338 40 326 b 75 226 35 318 60 282 b 294 0 110 72 188 0 z m 221 992 b 271 1035 221 992 231 1035 b 221 1078 231 1035 221 1078 b 171 1035 221 1078 211 1035 b 221 992 211 1035 221 992 z m 333 992 b 383 1035 333 992 343 1035 b 333 1078 343 1035 333 1078 b 283 1035 333 1078 324 1035 b 333 992 324 1035 333 992 z "},"Ù":{"ha":599,"x_min":0,"x_max":0,"o":"m 332 1001 b 175 1182 288 1099 229 1133 b 247 1015 229 1090 244 1029 b 332 1001 275 1021 303 1015 z m 294 0 b 501 256 414 0 501 65 l 501 863 b 585 1078 501 947 525 1061 b 468 990 531 1078 500 1046 b 483 965 478 985 483 975 b 456 938 483 950 471 938 b 428 965 440 938 428 950 l 349 965 b 408 863 349 965 408 946 l 408 501 b 378 93 410 353 419 140 b 224 68 340 49 272 40 b 147 457 138 118 149 260 l 147 863 b 208 965 147 946 208 965 l -6 965 b 56 863 -6 965 56 946 l 56 379 b 0 326 56 338 40 326 b 75 226 35 318 60 282 b 294 0 110 72 188 0 z "},"V":{"ha":742,"x_min":0,"x_max":0,"o":"m 638 968 b 610 940 638 953 625 940 b 582 968 594 940 582 953 l 514 968 b 549 864 514 968 569 949 l 539 832 l 429 403 l 364 156 l 333 276 l 300 403 l 189 832 l 181 864 b 204 963 165 925 189 951 l 214 968 l 0 968 l 8 964 b 88 864 28 956 71 929 l 96 832 l 193 461 l 213 383 l 301 39 b 257 0 283 8 257 0 l 336 0 b 364 28 336 15 349 28 b 392 0 379 28 392 15 b 378 -24 392 -10 386 -19 b 493 -111 408 -79 439 -111 b 419 11 454 -101 431 -49 l 515 383 l 536 461 l 632 832 l 640 864 b 728 968 663 949 728 968 z "},"W":{"ha":1093,"x_min":0,"x_max":0,"o":"m 493 -112 b 419 10 454 -101 432 -49 l 493 293 l 517 382 l 535 456 l 540 474 l 543 460 l 544 458 l 586 294 l 660 10 b 586 -112 649 -49 625 -101 b 703 -25 640 -112 671 -81 b 688 0 693 -19 688 -11 b 715 26 688 15 700 26 b 743 0 731 26 743 15 l 822 0 b 778 39 822 0 796 8 l 867 382 l 888 460 l 958 733 l 983 831 l 992 864 b 1079 967 1014 947 1079 967 l 992 967 b 964 939 992 951 979 939 b 936 967 949 939 938 951 l 865 967 b 899 864 865 967 921 947 l 890 831 l 865 733 l 844 651 l 779 403 l 746 275 l 715 156 l 685 275 l 651 403 l 586 651 b 647 751 588 733 647 751 l 433 751 b 493 651 433 751 492 733 l 429 403 l 396 275 l 365 156 l 333 275 l 300 403 l 215 733 l 189 831 l 181 864 b 215 967 160 947 215 967 l 0 967 b 89 864 0 967 67 947 l 97 831 l 122 733 l 193 460 l 214 382 l 303 39 b 257 0 285 8 257 0 l 338 0 b 364 26 338 15 350 26 b 392 0 379 26 392 15 b 378 -25 392 -11 386 -19 b 493 -112 410 -81 440 -112 z "},"X":{"ha":683,"x_min":0,"x_max":0,"o":"m 0 0 l 88 0 b 115 28 88 15 100 28 b 143 0 131 28 143 15 l 214 0 b 196 104 214 0 161 19 l 210 136 l 324 414 l 335 440 l 346 414 l 460 136 l 474 104 b 454 0 508 19 454 0 l 669 0 b 565 104 669 0 600 19 l 553 136 l 410 483 l 553 831 l 565 863 b 669 967 600 947 669 967 l 582 967 b 554 939 582 951 569 939 b 526 967 539 939 526 951 l 454 967 b 474 863 454 967 508 947 l 460 831 l 346 553 l 335 526 l 324 553 l 210 831 l 196 863 b 214 967 161 947 214 967 l 0 967 b 103 863 0 967 68 947 l 117 831 l 260 483 l 117 136 l 103 104 b 0 0 68 19 0 0 z "},"Y":{"ha":683,"x_min":0,"x_max":0,"o":"m 464 -111 b 382 103 404 -96 382 18 l 382 414 l 410 483 l 553 829 l 567 863 b 669 965 601 947 669 965 l 582 965 b 554 939 582 950 569 939 b 526 965 539 939 526 950 l 456 965 b 474 863 456 965 508 947 l 460 829 l 346 553 l 335 526 l 324 553 l 210 829 l 197 863 b 215 965 163 947 215 965 l 0 965 b 104 863 0 965 69 947 l 117 829 l 260 483 l 289 414 l 289 103 b 228 0 289 19 228 0 l 307 0 b 335 28 307 15 319 28 b 363 0 350 28 363 15 b 349 -25 363 -10 357 -19 b 464 -111 379 -81 410 -111 z "},"Z":{"ha":578,"x_min":0,"x_max":0,"o":"m 0 0 l 564 0 b 503 103 564 0 503 19 l 503 206 b 564 310 503 290 564 310 l 483 310 b 456 282 483 294 471 282 b 429 310 440 282 429 294 b 443 333 429 319 435 329 b 326 421 411 390 381 421 b 410 206 386 406 410 290 l 410 157 b 310 54 406 74 353 54 l 254 54 b 154 167 208 54 154 76 l 154 318 b 522 738 272 371 419 736 b 503 814 508 746 503 778 l 503 865 b 564 968 503 949 564 968 l 361 968 l 360 968 l 204 968 b 189 968 199 968 194 968 l 113 968 l 0 968 b 61 865 0 968 61 949 l 61 761 b 0 658 61 678 0 658 l 81 658 b 107 686 81 674 92 686 b 135 658 122 686 135 674 b 121 635 135 649 129 639 b 236 547 153 578 183 547 b 154 761 178 563 154 676 l 154 801 b 254 914 154 893 208 914 l 310 914 b 410 801 354 914 410 893 l 410 778 b 42 382 344 728 258 394 b 61 326 56 374 61 363 l 61 275 b 61 253 61 272 61 261 l 61 161 b 54 60 61 119 58 79 b 0 0 39 13 0 0 z "},"a":{"ha":676,"x_min":0,"x_max":0,"o":"m 0 0 l 88 0 b 115 28 88 15 100 28 b 143 0 131 28 143 15 l 214 0 l 204 6 b 181 104 189 17 165 43 l 189 136 l 231 299 l 389 299 l 432 136 l 440 104 b 417 6 456 43 431 17 l 406 0 l 478 0 b 506 28 478 15 490 28 b 532 0 521 28 532 15 l 621 0 l 611 4 b 532 104 593 13 550 39 l 524 136 l 428 507 l 407 585 l 381 689 l 381 690 b 417 783 369 731 368 769 l 204 783 b 239 690 251 769 251 731 l 239 689 l 213 585 l 192 507 l 96 136 l 88 104 b 8 4 71 39 28 13 z m 244 353 l 300 565 l 310 604 l 321 565 l 375 353 z "},"á":{"ha":676,"x_min":0,"x_max":0,"o":"m 299 988 b 382 1001 328 1001 356 1007 b 456 1169 385 1015 400 1076 b 299 988 400 1119 342 1085 z m 0 0 l 88 0 b 115 28 88 15 100 28 b 143 0 131 28 143 15 l 214 0 l 204 6 b 181 104 189 17 165 43 l 189 136 l 231 299 l 389 299 l 432 136 l 440 104 b 417 6 456 43 431 17 l 406 0 l 478 0 b 506 28 478 15 490 28 b 532 0 521 28 532 15 l 621 0 l 611 4 b 532 104 593 13 550 39 l 524 136 l 428 507 l 407 585 l 381 689 l 381 690 b 417 783 369 731 368 769 l 204 783 b 239 690 251 769 251 731 l 239 689 l 213 585 l 192 507 l 96 136 l 88 104 b 8 4 71 39 28 13 z m 244 353 l 300 565 l 310 604 l 321 565 l 375 353 z "},"â":{"ha":676,"x_min":0,"x_max":0,"o":"m 236 992 l 283 992 l 317 1049 l 350 992 l 397 992 l 394 999 l 374 1038 b 396 1079 356 1071 396 1079 l 238 1079 b 260 1038 238 1079 278 1071 l 239 999 z m 0 0 l 88 0 b 115 28 88 15 100 28 b 143 0 131 28 143 15 l 214 0 l 204 6 b 181 104 189 17 165 43 l 189 136 l 231 299 l 389 299 l 432 136 l 440 104 b 417 6 456 43 431 17 l 406 0 l 478 0 b 506 28 478 15 490 28 b 532 0 521 28 532 15 l 621 0 l 611 4 b 532 104 593 13 550 39 l 524 136 l 428 507 l 407 585 l 381 689 l 381 690 b 417 783 369 731 368 769 l 204 783 b 239 690 251 769 251 731 l 239 689 l 213 585 l 192 507 l 96 136 l 88 104 b 8 4 71 39 28 13 z m 244 353 l 300 565 l 310 604 l 321 565 l 375 353 z "},"ä":{"ha":676,"x_min":0,"x_max":0,"o":"m 263 992 b 313 1035 263 992 272 1035 b 263 1078 272 1035 263 1078 b 213 1035 263 1078 253 1035 b 263 992 253 1035 263 992 z m 375 992 b 425 1035 375 992 385 1035 b 375 1078 385 1035 375 1078 b 325 1035 375 1078 365 1035 b 375 992 365 1035 375 992 z m 0 0 l 88 0 b 115 28 88 15 100 28 b 143 0 131 28 143 15 l 214 0 l 204 6 b 181 104 189 17 165 43 l 189 136 l 231 299 l 389 299 l 432 136 l 440 104 b 417 6 456 43 431 17 l 406 0 l 478 0 b 506 28 478 15 490 28 b 532 0 521 28 532 15 l 621 0 l 611 4 b 532 104 593 13 550 39 l 524 136 l 428 507 l 407 585 l 381 689 l 381 690 b 417 783 369 731 368 769 l 204 783 b 239 690 251 769 251 731 l 239 689 l 213 585 l 192 507 l 96 136 l 88 104 b 8 4 71 39 28 13 z m 244 353 l 300 565 l 310 604 l 321 565 l 375 353 z "},"à":{"ha":676,"x_min":0,"x_max":0,"o":"m 401 1001 b 244 1182 357 1099 299 1133 b 317 1015 299 1090 314 1029 b 401 1001 344 1021 372 1015 z m 0 0 l 88 0 b 115 28 88 15 100 28 b 143 0 131 28 143 15 l 214 0 l 204 6 b 181 104 189 17 165 43 l 189 136 l 231 299 l 389 299 l 432 136 l 440 104 b 417 6 456 43 431 17 l 406 0 l 478 0 b 506 28 478 15 490 28 b 532 0 521 28 532 15 l 621 0 l 611 4 b 532 104 593 13 550 39 l 524 136 l 428 507 l 407 585 l 381 689 l 381 690 b 417 783 369 731 368 769 l 204 783 b 239 690 251 769 251 731 l 239 689 l 213 585 l 192 507 l 96 136 l 88 104 b 8 4 71 39 28 13 z m 244 353 l 300 565 l 310 604 l 321 565 l 375 353 z "},"å":{"ha":676,"x_min":0,"x_max":0,"o":"m 278 1050 b 339 1103 328 1050 339 1103 b 400 1050 339 1103 350 1050 b 339 1111 400 1083 372 1111 b 278 1050 304 1111 278 1083 z m 339 989 b 400 1050 372 989 400 1017 b 339 997 350 1050 339 997 b 278 1050 339 997 328 1050 b 339 989 278 1017 304 989 z m 0 0 l 88 0 b 115 28 88 15 100 28 b 143 0 131 28 143 15 l 214 0 l 204 6 b 181 104 189 17 165 43 l 189 136 l 231 299 l 389 299 l 432 136 l 440 104 b 417 6 456 43 431 17 l 406 0 l 478 0 b 506 28 478 15 490 28 b 532 0 521 28 532 15 l 621 0 l 611 4 b 532 104 593 13 550 39 l 524 136 l 428 507 l 407 585 l 381 689 l 381 690 b 417 783 369 731 368 769 l 204 783 b 239 690 251 769 251 731 l 239 689 l 213 585 l 192 507 l 96 136 l 88 104 b 8 4 71 39 28 13 z m 244 353 l 300 565 l 310 604 l 321 565 l 375 353 z "},"ã":{"ha":676,"x_min":0,"x_max":0,"o":"m 186 989 b 303 1025 210 1018 226 1058 b 464 1065 419 974 464 1065 b 315 1069 464 1065 414 1028 b 274 1078 300 1076 286 1079 b 186 989 208 1076 186 989 z m 0 0 l 88 0 b 115 28 88 15 100 28 b 143 0 131 28 143 15 l 214 0 l 204 6 b 181 104 189 17 165 43 l 189 136 l 231 299 l 389 299 l 432 136 l 440 104 b 417 6 456 43 431 17 l 406 0 l 478 0 b 506 28 478 15 490 28 b 532 0 521 28 532 15 l 621 0 l 611 4 b 532 104 593 13 550 39 l 524 136 l 428 507 l 407 585 l 381 689 l 381 690 b 417 783 369 731 368 769 l 204 783 b 239 690 251 769 251 731 l 239 689 l 213 585 l 192 507 l 96 136 l 88 104 b 8 4 71 39 28 13 z m 244 353 l 300 565 l 310 604 l 321 565 l 375 353 z "},"æ":{"ha":964,"x_min":0,"x_max":0,"o":"m 646 728 l 786 728 b 908 615 842 728 908 707 l 908 782 l 372 782 b 374 781 372 781 374 781 b 379 778 375 779 378 779 b 388 772 382 776 385 775 b 390 771 389 772 390 771 b 393 768 392 769 393 769 b 394 767 394 768 394 767 b 386 689 408 749 400 719 l 385 689 l 336 585 l 300 507 l 125 136 l 110 103 b 10 4 79 38 31 13 l 0 0 l 88 0 b 121 28 92 15 106 28 b 143 0 136 28 146 15 l 215 0 l 206 6 b 203 103 193 17 174 43 l 218 136 l 294 297 l 431 297 l 431 103 b 369 0 431 19 369 0 l 449 0 b 476 28 449 15 461 28 b 504 0 492 28 504 15 l 908 0 l 908 168 b 786 54 908 76 842 54 l 646 54 b 522 168 590 54 522 76 l 522 433 b 775 347 568 435 742 436 l 775 569 b 522 483 742 482 568 482 l 522 615 b 646 728 522 707 590 728 z m 431 353 l 319 353 l 419 564 l 431 588 z "},"b":{"ha":585,"x_min":0,"x_max":0,"o":"m -1 0 l 79 0 b 107 28 79 15 92 28 b 133 0 122 28 133 15 l 214 0 l 339 0 b 529 185 431 1 529 51 l 529 264 b 394 442 529 369 467 424 b 458 558 428 467 451 504 b 458 626 461 576 461 608 b 268 782 444 738 354 782 l 214 782 l -1 782 b 8 778 -1 782 3 782 b 11 776 10 778 10 778 l 18 772 b 28 765 21 771 24 768 b 29 763 28 764 28 764 b 31 761 29 763 31 761 l 35 757 b 36 754 35 756 36 756 l 40 750 b 42 747 40 749 42 747 l 46 742 b 47 739 46 740 46 739 l 50 732 b 51 728 50 731 51 729 b 54 722 53 726 53 724 b 56 717 54 721 54 718 b 57 710 56 715 57 713 b 58 706 57 708 57 707 l 58 697 b 60 690 60 694 60 693 l 60 683 l 60 103 b -1 0 60 19 -1 0 z m 263 449 b 153 561 208 449 157 476 l 153 624 b 263 736 157 708 208 736 b 367 599 328 736 365 693 l 367 586 b 263 449 365 492 328 449 z m 275 46 b 153 160 222 46 157 75 l 153 289 b 275 401 157 375 222 401 b 438 264 404 401 435 360 l 438 185 b 275 46 435 89 404 46 z "},"c":{"ha":508,"x_min":0,"x_max":0,"o":"m 224 0 b 408 64 290 0 349 3 b 453 0 431 43 446 18 l 453 306 b 228 68 453 306 397 68 b 93 200 167 68 93 133 l 93 583 b 228 715 93 649 167 715 b 453 478 397 715 453 478 l 453 782 b 408 718 446 764 431 740 b 224 782 349 779 290 782 b 0 569 93 782 0 696 l 0 214 b 224 0 0 88 93 0 z "},"ç":{"ha":508,"x_min":0,"x_max":0,"o":"m 228 715 b 453 478 397 715 453 478 l 453 782 b 408 718 446 764 431 740 b 224 782 349 779 290 782 b 0 569 93 782 0 696 l 0 214 b 224 0 0 88 93 0 b 282 3 243 0 263 0 b 292 -79 299 -10 307 -32 b 389 -193 246 -214 354 -236 b 338 -81 375 -206 289 -203 b 326 11 357 -31 347 -3 b 408 64 354 19 381 36 b 453 0 431 43 446 18 l 453 306 b 228 68 453 306 397 68 b 93 200 167 68 93 133 l 93 583 b 228 715 93 649 167 715 z "},"d":{"ha":586,"x_min":0,"x_max":0,"o":"m 0 0 l 81 0 b 108 28 81 15 93 28 b 135 0 124 28 135 15 l 215 0 b 340 1 253 0 293 1 b 531 185 432 1 531 53 l 531 599 b 340 782 531 731 432 782 b 215 783 293 782 253 783 l 0 783 l 10 779 b 13 778 11 778 11 778 b 19 772 14 776 17 775 b 29 765 22 771 25 768 b 31 764 29 765 29 764 b 32 761 31 763 32 763 l 36 757 b 38 756 36 757 38 756 l 42 750 b 43 747 42 750 43 749 b 47 742 44 746 46 744 b 49 739 47 742 47 740 b 51 733 49 738 50 735 b 53 729 51 732 53 731 l 56 722 b 57 718 56 721 56 719 b 58 711 57 715 58 713 b 60 706 58 708 58 707 b 60 697 60 703 60 700 b 61 692 61 696 61 693 b 61 685 61 689 61 688 l 61 683 l 61 100 b 61 92 61 97 61 94 b 60 86 61 90 61 88 l 60 78 b 58 72 58 76 58 75 b 57 65 58 71 57 68 b 56 61 56 64 56 63 l 53 54 b 51 51 53 53 51 51 b 49 44 50 49 49 46 b 47 42 47 43 47 43 l 43 36 b 42 33 43 35 42 35 l 38 28 b 36 26 38 28 36 26 l 32 22 b 31 19 32 21 31 21 b 29 18 29 19 29 19 b 19 11 25 15 22 13 b 13 7 17 8 14 7 b 10 4 11 6 11 6 z m 276 47 b 154 160 224 47 158 75 l 154 624 b 276 736 158 708 224 736 b 438 599 406 736 436 693 l 438 185 b 276 47 436 90 406 47 z "},"e":{"ha":596,"x_min":0,"x_max":0,"o":"m 0 0 l 81 0 b 108 28 81 15 93 28 b 135 0 124 28 135 15 l 540 0 l 540 168 b 418 56 540 76 472 56 l 276 56 b 154 168 222 56 154 76 l 154 435 b 407 349 199 436 372 436 l 407 571 b 154 485 372 482 199 483 l 154 615 b 276 728 154 707 222 728 l 418 728 b 540 615 472 729 540 707 l 540 783 l 0 783 b 4 782 0 783 1 783 l 6 781 b 11 778 7 781 8 779 b 19 774 14 776 17 775 l 22 771 l 25 768 b 28 767 26 768 26 767 l 28 765 b 31 763 29 765 31 764 b 36 757 33 761 35 758 b 47 742 40 753 43 747 b 49 739 47 742 47 740 b 51 733 49 738 50 735 b 53 731 51 732 51 732 b 58 710 56 724 57 717 b 60 706 58 708 58 707 b 61 697 60 703 60 700 l 61 693 l 61 679 l 61 104 b 0 0 61 19 0 0 z "},"é":{"ha":596,"x_min":0,"x_max":0,"o":"m 299 988 b 382 1001 328 1001 356 1007 b 456 1169 385 1015 400 1076 b 299 988 400 1119 342 1085 z m 0 0 l 81 0 b 108 28 81 15 93 28 b 135 0 124 28 135 15 l 540 0 l 540 168 b 418 56 540 76 472 56 l 276 56 b 154 168 222 56 154 76 l 154 435 b 407 349 199 436 372 436 l 407 571 b 154 485 372 482 199 483 l 154 615 b 276 728 154 707 222 728 l 418 728 b 540 615 472 729 540 707 l 540 783 l 0 783 b 4 782 0 783 1 783 l 6 781 b 11 778 7 781 8 779 b 19 774 14 776 17 775 l 22 771 l 25 768 b 28 767 26 768 26 767 l 28 765 b 31 763 29 765 31 764 b 36 757 33 761 35 758 b 47 742 40 753 43 747 b 49 739 47 742 47 740 b 51 733 49 738 50 735 b 53 731 51 732 51 732 b 58 710 56 724 57 717 b 60 706 58 708 58 707 b 61 697 60 703 60 700 l 61 693 l 61 679 l 61 104 b 0 0 61 19 0 0 z "},"ê":{"ha":596,"x_min":0,"x_max":0,"o":"m 236 992 l 283 992 l 317 1049 l 350 992 l 397 992 l 394 999 l 374 1038 b 396 1079 356 1071 396 1079 l 238 1079 b 260 1038 238 1079 278 1071 l 239 999 z m 0 0 l 81 0 b 108 28 81 15 93 28 b 135 0 124 28 135 15 l 540 0 l 540 168 b 418 56 540 76 472 56 l 276 56 b 154 168 222 56 154 76 l 154 435 b 407 349 199 436 372 436 l 407 571 b 154 485 372 482 199 483 l 154 615 b 276 728 154 707 222 728 l 418 728 b 540 615 472 729 540 707 l 540 783 l 0 783 b 4 782 0 783 1 783 l 6 781 b 11 778 7 781 8 779 b 19 774 14 776 17 775 l 22 771 l 25 768 b 28 767 26 768 26 767 l 28 765 b 31 763 29 765 31 764 b 36 757 33 761 35 758 b 47 742 40 753 43 747 b 49 739 47 742 47 740 b 51 733 49 738 50 735 b 53 731 51 732 51 732 b 58 710 56 724 57 717 b 60 706 58 708 58 707 b 61 697 60 703 60 700 l 61 693 l 61 679 l 61 104 b 0 0 61 19 0 0 z "},"ë":{"ha":596,"x_min":0,"x_max":0,"o":"m 263 992 b 313 1035 263 992 272 1035 b 263 1078 272 1035 263 1078 b 213 1035 263 1078 253 1035 b 263 992 253 1035 263 992 z m 375 992 b 425 1035 375 992 385 1035 b 375 1078 385 1035 375 1078 b 325 1035 375 1078 365 1035 b 375 992 365 1035 375 992 z m 0 0 l 81 0 b 108 28 81 15 93 28 b 135 0 124 28 135 15 l 540 0 l 540 168 b 418 56 540 76 472 56 l 276 56 b 154 168 222 56 154 76 l 154 435 b 407 349 199 436 372 436 l 407 571 b 154 485 372 482 199 483 l 154 615 b 276 728 154 707 222 728 l 418 728 b 540 615 472 729 540 707 l 540 783 l 0 783 b 4 782 0 783 1 783 l 6 781 b 11 778 7 781 8 779 b 19 774 14 776 17 775 l 22 771 l 25 768 b 28 767 26 768 26 767 l 28 765 b 31 763 29 765 31 764 b 36 757 33 761 35 758 b 47 742 40 753 43 747 b 49 739 47 742 47 740 b 51 733 49 738 50 735 b 53 731 51 732 51 732 b 58 710 56 724 57 717 b 60 706 58 708 58 707 b 61 697 60 703 60 700 l 61 693 l 61 679 l 61 104 b 0 0 61 19 0 0 z "},"è":{"ha":596,"x_min":0,"x_max":0,"o":"m 401 1001 b 244 1182 357 1099 299 1133 b 317 1015 299 1090 314 1029 b 401 1001 344 1021 372 1015 z m 0 0 l 81 0 b 108 28 81 15 93 28 b 135 0 124 28 135 15 l 540 0 l 540 168 b 418 56 540 76 472 56 l 276 56 b 154 168 222 56 154 76 l 154 435 b 407 349 199 436 372 436 l 407 571 b 154 485 372 482 199 483 l 154 615 b 276 728 154 707 222 728 l 418 728 b 540 615 472 729 540 707 l 540 783 l 0 783 b 4 782 0 783 1 783 l 6 781 b 11 778 7 781 8 779 b 19 774 14 776 17 775 l 22 771 l 25 768 b 28 767 26 768 26 767 l 28 765 b 31 763 29 765 31 764 b 36 757 33 761 35 758 b 47 742 40 753 43 747 b 49 739 47 742 47 740 b 51 733 49 738 50 735 b 53 731 51 732 51 732 b 58 710 56 724 57 717 b 60 706 58 708 58 707 b 61 697 60 703 60 700 l 61 693 l 61 679 l 61 104 b 0 0 61 19 0 0 z "},"f":{"ha":594,"x_min":0,"x_max":0,"o":"m 539 783 l 0 783 b 3 782 0 783 1 783 l 4 782 b 10 779 6 781 8 779 l 18 774 b 21 771 19 772 21 772 b 24 769 22 771 24 769 b 26 767 25 768 26 767 l 28 767 b 31 764 28 765 29 764 l 33 760 b 46 742 38 754 43 749 l 47 740 b 51 733 49 738 50 735 l 51 731 b 58 710 54 725 57 718 l 58 707 b 60 697 60 703 60 700 l 60 693 b 61 681 61 689 61 685 l 61 104 b 0 1 61 19 0 1 l 79 1 b 107 28 79 17 92 28 b 135 1 122 28 135 17 l 214 1 b 154 104 214 1 154 19 l 154 435 b 406 349 199 436 372 436 l 406 571 b 154 485 372 482 199 483 l 154 615 b 276 729 154 707 221 729 l 417 729 b 539 615 472 729 539 707 z "},"g":{"ha":569,"x_min":0,"x_max":0,"o":"m 433 415 b 407 389 433 400 422 389 b 379 415 392 389 379 400 l 299 415 b 360 313 299 415 360 397 l 360 185 b 354 122 360 160 358 140 b 228 68 322 90 281 68 b 93 200 167 68 93 133 l 93 583 b 228 715 93 649 167 715 b 453 478 397 715 453 478 l 453 782 b 408 718 446 764 431 740 b 224 782 349 779 290 782 b 0 569 93 782 0 696 l 0 214 b 224 0 0 88 93 0 b 408 64 290 0 349 3 b 453 0 431 43 446 18 l 453 313 b 514 415 453 397 514 415 z "},"h":{"ha":675,"x_min":0,"x_max":0,"o":"m -1 0 l 79 0 b 107 28 79 15 92 28 b 133 0 122 28 133 15 l 214 0 b 153 104 214 0 153 19 l 153 299 b 275 411 153 390 221 411 l 286 411 l 344 411 b 465 317 396 411 458 393 l 465 104 b 406 0 465 19 406 0 l 485 0 b 513 28 485 15 497 28 b 540 0 528 28 540 15 l 619 0 b 558 104 619 0 558 19 l 558 679 b 619 782 558 764 619 782 l 406 782 b 465 679 406 782 465 764 l 465 561 b 344 467 458 485 396 467 l 286 467 l 275 467 b 153 579 221 467 153 488 l 153 679 b 214 782 153 764 214 782 l -1 782 b 60 679 -1 782 60 764 l 60 104 b -1 0 60 19 -1 0 z "},"i":{"ha":269,"x_min":0,"x_max":0,"o":"m 0 0 l 81 0 b 107 28 81 15 92 28 b 135 0 122 28 135 15 l 214 0 b 154 104 214 0 154 19 l 154 679 b 214 783 154 764 214 783 l 0 783 b 61 679 0 783 61 764 l 61 104 b 0 0 61 19 0 0 z "},"ı":{"ha":269,"x_min":0,"x_max":0,"o":"m 0 0 l 81 0 b 107 28 81 15 92 28 b 135 0 122 28 135 15 l 214 0 b 154 104 214 0 154 19 l 154 679 b 214 783 154 764 214 783 l 0 783 b 61 679 0 783 61 764 l 61 104 b 0 0 61 19 0 0 z "},"í":{"ha":269,"x_min":0,"x_max":0,"o":"m 63 988 b 146 1001 92 1001 119 1007 b 219 1169 149 1015 164 1076 b 63 988 164 1119 106 1085 z m 0 0 l 81 0 b 107 28 81 15 92 28 b 135 0 122 28 135 15 l 214 0 b 154 104 214 0 154 19 l 154 679 b 214 783 154 764 214 783 l 0 783 b 61 679 0 783 61 764 l 61 104 b 0 0 61 19 0 0 z "},"î":{"ha":269,"x_min":0,"x_max":0,"o":"m 28 992 l 75 992 l 108 1049 l 142 992 l 189 992 l 186 999 l 165 1038 b 188 1079 147 1071 188 1079 l 29 1079 b 51 1038 29 1079 69 1071 l 31 999 z m 0 0 l 81 0 b 107 28 81 15 92 28 b 135 0 122 28 135 15 l 214 0 b 154 104 214 0 154 19 l 154 679 b 214 783 154 764 214 783 l 0 783 b 61 679 0 783 61 764 l 61 104 b 0 0 61 19 0 0 z "},"ï":{"ha":269,"x_min":0,"x_max":0,"o":"m 54 992 b 104 1035 54 992 64 1035 b 54 1078 64 1035 54 1078 b 4 1035 54 1078 44 1035 b 54 992 44 1035 54 992 z m 167 992 b 217 1035 167 992 176 1035 b 167 1078 176 1035 167 1078 b 117 1035 167 1078 157 1035 b 167 992 157 1035 167 992 z m 0 0 l 81 0 b 107 28 81 15 92 28 b 135 0 122 28 135 15 l 214 0 b 154 104 214 0 154 19 l 154 679 b 214 783 154 764 214 783 l 0 783 b 61 679 0 783 61 764 l 61 104 b 0 0 61 19 0 0 z "},"j":{"ha":569,"x_min":0,"x_max":0,"o":"m 0 0 b 44 64 7 18 22 42 b 229 0 104 3 163 0 b 453 214 360 0 453 88 l 453 679 b 514 782 453 763 514 782 l 299 782 b 360 679 299 782 360 763 l 360 200 b 225 67 360 133 286 67 b 0 306 56 67 0 306 z "},"k":{"ha":676,"x_min":0,"x_max":0,"o":"m 0 0 l 79 0 b 107 28 79 15 92 28 b 135 0 122 28 135 15 l 215 0 b 208 104 215 0 165 19 l 307 294 l 311 301 l 314 294 l 413 104 b 406 0 457 19 406 0 l 471 0 b 499 28 471 15 483 28 b 525 0 514 28 525 15 l 621 0 b 506 104 621 0 550 19 l 357 392 l 368 411 l 489 647 l 506 679 b 621 782 550 764 621 782 l 406 782 b 413 679 406 782 457 764 l 396 647 l 363 582 l 311 481 l 264 392 l 199 264 l 154 176 l 154 679 b 214 782 154 764 214 782 l 0 782 b 61 679 0 782 61 764 l 61 104 b 0 0 61 19 0 0 z "},"l":{"ha":596,"x_min":0,"x_max":0,"o":"m 0 0 l 79 0 b 107 26 79 15 92 26 b 135 0 122 26 135 15 l 540 0 l 540 167 b 417 54 540 75 472 54 l 276 54 b 154 167 221 54 154 75 l 154 679 b 215 782 154 763 215 782 l 0 782 b 3 781 0 782 1 782 l 6 781 b 11 778 7 779 8 778 b 18 772 13 775 15 774 b 22 769 19 771 21 771 l 24 768 b 28 765 25 767 26 765 b 31 763 28 764 29 763 b 36 756 32 760 35 758 b 46 740 40 751 43 746 b 47 739 47 740 47 739 b 50 732 49 736 50 735 b 51 729 51 731 51 731 b 58 708 54 724 57 717 l 58 706 b 60 696 60 701 60 699 l 60 693 b 61 679 61 688 61 683 l 61 103 b 0 0 61 18 0 0 z "},"m":{"ha":993,"x_min":0,"x_max":0,"o":"m 724 0 l 796 0 b 824 28 796 15 808 28 b 850 0 839 28 850 15 l 938 0 l 929 4 b 850 104 910 13 867 39 l 842 136 l 746 508 l 725 586 l 699 690 l 697 690 b 733 783 686 731 686 769 l 521 783 b 557 690 569 769 568 731 l 531 586 l 510 508 l 501 478 l 479 388 l 468 349 l 428 508 l 407 586 l 381 690 l 379 690 b 415 783 368 731 368 769 l 203 783 b 239 690 251 769 250 731 l 213 586 l 192 508 l 96 136 l 88 104 b 8 4 69 39 26 13 l 0 0 l 86 0 b 114 28 86 15 99 28 b 142 0 129 28 142 15 l 214 0 l 203 7 b 179 104 189 17 164 43 l 188 136 l 299 565 l 310 604 l 319 565 l 342 478 l 350 444 l 371 367 l 397 264 l 397 263 l 399 263 b 363 169 410 222 410 183 l 575 169 b 538 258 528 182 528 219 l 618 565 l 628 604 l 638 565 l 749 136 l 757 104 b 733 7 772 43 749 17 z "},"n":{"ha":675,"x_min":0,"x_max":0,"o":"m 0 0 l 79 0 b 107 28 79 15 92 28 b 135 0 122 28 135 15 l 214 0 b 153 104 214 0 153 19 l 153 604 l 253 411 l 313 294 l 413 104 b 404 0 456 19 404 0 l 485 0 b 513 28 485 15 497 28 b 540 0 528 28 540 15 l 619 0 b 558 104 619 0 558 19 l 558 679 b 619 783 558 764 619 783 l 406 783 b 467 679 406 783 467 764 l 467 179 l 346 411 l 225 647 l 207 679 b 215 783 164 764 215 783 l 0 783 b 60 679 0 783 60 764 l 60 104 b 0 0 60 19 0 0 z "},"ñ":{"ha":675,"x_min":0,"x_max":0,"o":"m 186 989 b 303 1025 210 1018 226 1058 b 464 1065 419 974 464 1065 b 315 1069 464 1065 414 1028 b 274 1078 300 1076 286 1079 b 186 989 208 1076 186 989 z m 0 0 l 79 0 b 107 28 79 15 92 28 b 135 0 122 28 135 15 l 214 0 b 153 104 214 0 153 19 l 153 604 l 253 411 l 313 294 l 413 104 b 404 0 456 19 404 0 l 485 0 b 513 28 485 15 497 28 b 540 0 528 28 540 15 l 619 0 b 558 104 619 0 558 19 l 558 679 b 619 783 558 764 619 783 l 406 783 b 467 679 406 783 467 764 l 467 179 l 346 411 l 225 647 l 207 679 b 215 783 164 764 215 783 l 0 783 b 60 679 0 783 60 764 l 60 104 b 0 0 60 19 0 0 z "},"o":{"ha":508,"x_min":0,"x_max":0,"o":"m 192 0 b 226 0 207 0 215 0 l 261 0 b 451 156 347 0 438 44 b 453 228 453 164 453 196 l 453 553 b 451 625 453 586 453 617 b 261 782 438 738 347 781 b 226 782 246 782 238 782 l 192 782 b 1 625 106 781 15 738 b 0 553 0 617 0 586 l 0 228 b 1 156 0 196 0 164 b 192 0 15 44 106 0 z m 226 46 b 93 183 161 46 94 89 l 93 597 b 226 736 94 693 161 736 b 360 597 292 736 358 693 l 360 183 b 226 46 358 89 292 46 z "},"ó":{"ha":508,"x_min":0,"x_max":0,"o":"m 188 988 b 271 1001 217 1001 244 1007 b 344 1169 274 1015 289 1076 b 188 988 289 1119 231 1085 z m 192 0 b 226 0 207 0 215 0 l 261 0 b 451 156 347 0 438 44 b 453 228 453 164 453 196 l 453 553 b 451 625 453 586 453 617 b 261 782 438 738 347 781 b 226 782 246 782 238 782 l 192 782 b 1 625 106 781 15 738 b 0 553 0 617 0 586 l 0 228 b 1 156 0 196 0 164 b 192 0 15 44 106 0 z m 226 46 b 93 183 161 46 94 89 l 93 597 b 226 736 94 693 161 736 b 360 597 292 736 358 693 l 360 183 b 226 46 358 89 292 46 z "},"ô":{"ha":508,"x_min":0,"x_max":0,"o":"m 139 992 l 186 992 l 219 1049 l 253 992 l 300 992 l 297 999 l 276 1038 b 299 1079 258 1071 299 1079 l 140 1079 b 163 1038 140 1079 181 1071 l 142 999 z m 192 0 b 226 0 207 0 215 0 l 261 0 b 451 156 347 0 438 44 b 453 228 453 164 453 196 l 453 553 b 451 625 453 586 453 617 b 261 782 438 738 347 781 b 226 782 246 782 238 782 l 192 782 b 1 625 106 781 15 738 b 0 553 0 617 0 586 l 0 228 b 1 156 0 196 0 164 b 192 0 15 44 106 0 z m 226 46 b 93 183 161 46 94 89 l 93 597 b 226 736 94 693 161 736 b 360 597 292 736 358 693 l 360 183 b 226 46 358 89 292 46 z "},"ö":{"ha":508,"x_min":0,"x_max":0,"o":"m 165 992 b 215 1035 165 992 175 1035 b 165 1078 175 1035 165 1078 b 115 1035 165 1078 156 1035 b 165 992 156 1035 165 992 z m 278 992 b 328 1035 278 992 288 1035 b 278 1078 288 1035 278 1078 b 228 1035 278 1078 268 1035 b 278 992 268 1035 278 992 z m 192 0 b 226 0 207 0 215 0 l 261 0 b 451 156 347 0 438 44 b 453 228 453 164 453 196 l 453 553 b 451 625 453 586 453 617 b 261 782 438 738 347 781 b 226 782 246 782 238 782 l 192 782 b 1 625 106 781 15 738 b 0 553 0 617 0 586 l 0 228 b 1 156 0 196 0 164 b 192 0 15 44 106 0 z m 226 46 b 93 183 161 46 94 89 l 93 597 b 226 736 94 693 161 736 b 360 597 292 736 358 693 l 360 183 b 226 46 358 89 292 46 z "},"ò":{"ha":508,"x_min":0,"x_max":0,"o":"m 276 1001 b 119 1182 232 1099 174 1133 b 192 1015 174 1090 189 1029 b 276 1001 219 1021 247 1015 z m 192 0 b 226 0 207 0 215 0 l 261 0 b 451 156 347 0 438 44 b 453 228 453 164 453 196 l 453 553 b 451 625 453 586 453 617 b 261 782 438 738 347 781 b 226 782 246 782 238 782 l 192 782 b 1 625 106 781 15 738 b 0 553 0 617 0 586 l 0 228 b 1 156 0 196 0 164 b 192 0 15 44 106 0 z m 226 46 b 93 183 161 46 94 89 l 93 597 b 226 736 94 693 161 736 b 360 597 292 736 358 693 l 360 183 b 226 46 358 89 292 46 z "},"ø":{"ha":571,"x_min":0,"x_max":0,"o":"m -64 -92 l 150 -92 l 149 -90 b 133 -74 144 -89 139 -83 b 129 -67 132 -72 131 -69 l 125 -50 b 129 8 122 -36 122 -17 b 190 0 149 3 169 0 b 226 0 206 0 214 0 l 261 0 b 451 156 346 0 438 44 b 453 228 451 164 453 196 l 453 553 b 451 626 453 586 451 617 b 400 731 444 671 426 706 l 407 746 b 467 840 424 792 447 821 b 483 854 474 846 479 851 b 492 860 486 857 489 858 b 515 874 506 869 515 874 l 301 874 b 322 774 301 874 343 854 b 261 782 303 779 282 782 b 226 782 246 782 238 782 l 190 782 b 1 626 106 781 15 738 b 0 553 0 617 0 586 l 0 228 b 1 156 0 196 0 164 b 51 51 7 110 25 76 l 46 36 b -64 -92 6 -68 -64 -92 z m 93 164 b 92 183 93 169 92 176 l 92 597 b 226 736 93 693 161 736 b 301 714 253 736 279 728 l 299 706 l 225 510 l 189 415 l 169 365 l 135 272 z m 226 46 b 150 68 200 46 172 53 l 153 76 l 263 365 l 282 415 l 358 618 b 360 597 358 611 360 604 l 360 183 b 226 46 358 89 290 46 z "},"õ":{"ha":508,"x_min":0,"x_max":0,"o":"m 186 989 b 303 1025 210 1018 226 1058 b 464 1065 419 974 464 1065 b 315 1069 464 1065 414 1028 b 274 1078 300 1076 286 1079 b 186 989 208 1076 186 989 z m 192 0 b 226 0 207 0 215 0 l 261 0 b 451 156 347 0 438 44 b 453 228 453 164 453 196 l 453 553 b 451 625 453 586 453 617 b 261 782 438 738 347 781 b 226 782 246 782 238 782 l 192 782 b 1 625 106 781 15 738 b 0 553 0 617 0 586 l 0 228 b 1 156 0 196 0 164 b 192 0 15 44 106 0 z m 226 46 b 93 183 161 46 94 89 l 93 597 b 226 736 94 693 161 736 b 360 597 292 736 358 693 l 360 183 b 226 46 358 89 292 46 z "},"œ":{"ha":856,"x_min":0,"x_max":0,"o":"m 538 728 l 678 728 b 800 615 733 728 800 707 l 800 782 l 261 782 b 226 782 246 782 238 782 l 192 782 b 1 626 106 782 15 738 b 0 554 0 618 0 586 l 0 229 b 1 156 0 196 0 164 b 192 0 15 44 106 0 b 226 0 207 0 215 0 l 261 0 b 264 1 263 0 263 1 b 261 0 263 0 263 0 l 340 0 b 368 28 340 15 353 28 b 396 0 383 28 396 15 l 800 0 l 800 167 b 678 54 800 76 733 54 l 538 54 b 414 167 482 54 414 76 l 414 433 b 667 347 460 435 633 436 l 667 569 b 414 483 633 482 460 482 l 414 615 b 538 728 414 707 482 728 z m 321 693 l 321 679 l 321 103 b 319 82 321 96 321 89 b 226 46 294 58 260 46 b 93 183 161 46 94 89 l 93 599 b 226 736 94 693 161 736 b 319 700 260 736 294 725 b 321 696 319 699 321 697 z "},"p":{"ha":569,"x_min":0,"x_max":0,"o":"m 513 626 b 322 782 499 738 407 782 l 215 782 l 3 782 b 6 781 4 782 6 781 l 10 778 b 13 776 10 778 11 778 b 19 772 14 775 17 774 b 28 765 22 771 25 768 l 31 763 b 32 761 31 763 32 761 l 36 757 b 38 754 36 756 38 756 l 42 750 b 43 747 42 749 43 749 b 46 742 44 746 46 743 l 49 738 b 51 732 49 736 50 735 b 53 728 51 731 53 729 b 56 722 54 726 54 724 b 57 717 56 721 56 719 b 58 710 57 715 57 713 l 58 704 b 60 697 60 703 60 700 b 61 692 60 696 61 693 l 61 682 l 61 104 b 0 0 61 19 0 0 l 81 0 b 108 28 81 15 93 28 b 135 0 124 28 135 15 l 215 0 b 154 104 215 0 154 19 l 154 311 l 215 311 l 293 311 b 513 467 378 311 499 356 b 513 626 514 485 514 608 z m 421 494 b 288 357 419 400 351 357 b 154 469 233 357 158 385 l 154 624 b 288 736 158 708 233 736 b 421 599 351 736 419 693 z "},"q":{"ha":579,"x_min":0,"x_max":0,"o":"m 524 -107 b 349 17 439 -92 386 -43 b 451 156 400 39 442 82 b 453 228 453 164 453 196 l 453 553 b 451 625 453 586 453 617 b 263 782 438 738 347 781 b 226 782 247 782 238 782 l 192 782 b 1 625 107 781 15 738 b 0 553 0 617 0 586 l 0 228 b 1 156 0 196 0 164 b 192 0 15 44 107 0 l 226 0 b 263 0 238 0 247 0 l 268 0 b 524 -107 326 -96 354 -107 z m 226 46 b 93 183 161 46 94 89 l 93 597 b 226 735 94 693 161 735 b 360 597 292 735 358 693 l 360 183 b 315 78 360 135 342 100 l 299 114 l 200 114 b 240 46 215 89 228 67 z "},"r":{"ha":676,"x_min":0,"x_max":0,"o":"m 0 0 l 79 0 b 107 28 79 15 92 28 b 135 0 122 28 135 15 l 214 0 b 154 104 214 0 154 19 l 154 311 l 214 311 l 293 311 b 328 314 304 311 315 313 l 407 136 l 421 104 b 406 0 458 19 406 0 l 474 0 b 501 28 474 15 486 28 b 529 0 517 28 529 15 l 621 0 b 514 104 621 0 551 19 l 499 136 l 410 338 b 511 467 461 361 504 403 b 511 626 514 485 514 608 b 322 782 497 738 407 782 b 214 783 275 782 253 782 l 0 783 b 1 782 0 783 0 782 l 3 782 b 6 781 3 782 4 781 b 8 779 7 779 7 779 b 11 776 10 778 11 778 b 18 772 14 775 17 774 b 28 765 22 771 25 768 b 29 763 29 764 29 764 b 32 761 31 763 31 761 b 35 757 33 760 35 758 b 38 754 36 757 36 756 b 40 750 39 753 40 751 l 43 747 b 46 742 43 746 44 744 b 47 739 47 740 47 739 b 50 733 49 736 50 735 b 53 728 51 732 51 729 b 54 722 53 726 54 725 b 56 717 54 721 56 719 b 57 710 57 715 57 713 b 58 706 58 708 58 707 b 60 697 58 703 60 700 l 60 692 b 61 683 60 689 61 686 l 61 104 b 0 0 61 19 0 0 z m 286 357 b 154 471 233 357 157 385 l 154 624 b 286 736 157 708 233 736 b 421 599 351 736 418 693 l 421 494 b 286 357 418 400 351 357 z "},"s":{"ha":508,"x_min":0,"x_max":0,"o":"m 0 0 b 46 64 7 18 22 43 b 229 0 104 3 163 0 b 453 214 360 0 453 88 l 453 236 b 219 481 454 396 343 431 b 122 689 58 544 78 628 b 342 674 169 751 300 731 l 346 668 b 407 478 365 633 375 597 l 407 783 b 363 719 400 765 385 740 b 206 783 332 771 257 783 b 1 613 122 783 6 736 b 360 200 -8 335 360 464 b 225 68 360 133 286 68 b 0 306 56 68 0 306 z "},"t":{"ha":596,"x_min":0,"x_max":0,"o":"m 0 782 l 0 615 b 111 728 0 700 58 728 b 224 615 165 728 224 700 l 224 103 b 163 0 224 19 163 0 l 243 0 b 269 28 243 15 254 28 b 297 0 285 28 297 15 l 378 0 b 317 103 378 0 317 19 l 317 615 b 428 728 317 700 375 728 b 540 615 481 728 540 700 l 540 782 z "},"u":{"ha":631,"x_min":0,"x_max":0,"o":"m 288 0 l 322 0 b 513 156 407 0 499 44 b 514 228 513 164 514 196 l 514 679 b 575 782 514 764 575 782 l 360 782 b 421 679 360 782 421 764 l 421 183 b 288 46 419 89 353 46 b 154 183 222 46 156 89 l 154 679 b 214 782 154 764 214 782 l 0 782 b 61 679 0 782 61 764 l 61 228 b 63 156 61 196 61 164 b 253 0 76 44 167 0 z "},"ú":{"ha":631,"x_min":0,"x_max":0,"o":"m 243 988 b 326 1001 272 1001 300 1007 b 400 1169 329 1015 344 1076 b 243 988 344 1119 286 1085 z m 288 0 l 322 0 b 513 156 407 0 499 44 b 514 228 513 164 514 196 l 514 679 b 575 782 514 764 575 782 l 360 782 b 421 679 360 782 421 764 l 421 183 b 288 46 419 89 353 46 b 154 183 222 46 156 89 l 154 679 b 214 782 154 764 214 782 l 0 782 b 61 679 0 782 61 764 l 61 228 b 63 156 61 196 61 164 b 253 0 76 44 167 0 z "},"û":{"ha":631,"x_min":0,"x_max":0,"o":"m 208 992 l 256 992 l 289 1049 l 322 992 l 369 992 l 367 999 l 346 1038 b 368 1079 328 1071 368 1079 l 210 1079 b 232 1038 210 1079 250 1071 l 211 999 z m 288 0 l 322 0 b 513 156 407 0 499 44 b 514 228 513 164 514 196 l 514 679 b 575 782 514 764 575 782 l 360 782 b 421 679 360 782 421 764 l 421 183 b 288 46 419 89 353 46 b 154 183 222 46 156 89 l 154 679 b 214 782 154 764 214 782 l 0 782 b 61 679 0 782 61 764 l 61 228 b 63 156 61 196 61 164 b 253 0 76 44 167 0 z "},"ü":{"ha":631,"x_min":0,"x_max":0,"o":"m 263 992 b 313 1035 263 992 272 1035 b 263 1078 272 1035 263 1078 b 213 1035 263 1078 253 1035 b 263 992 253 1035 263 992 z m 375 992 b 425 1035 375 992 385 1035 b 375 1078 385 1035 375 1078 b 325 1035 375 1078 365 1035 b 375 992 365 1035 375 992 z m 288 0 l 322 0 b 513 156 407 0 499 44 b 514 228 513 164 514 196 l 514 679 b 575 782 514 764 575 782 l 360 782 b 421 679 360 782 421 764 l 421 183 b 288 46 419 89 353 46 b 154 183 222 46 156 89 l 154 679 b 214 782 154 764 214 782 l 0 782 b 61 679 0 782 61 764 l 61 228 b 63 156 61 196 61 164 b 253 0 76 44 167 0 z "},"ù":{"ha":631,"x_min":0,"x_max":0,"o":"m 346 1001 b 189 1182 301 1099 243 1133 b 261 1015 243 1090 258 1029 b 346 1001 289 1021 317 1015 z m 288 0 l 322 0 b 513 156 407 0 499 44 b 514 228 513 164 514 196 l 514 679 b 575 782 514 764 575 782 l 360 782 b 421 679 360 782 421 764 l 421 183 b 288 46 419 89 353 46 b 154 183 222 46 156 89 l 154 679 b 214 782 154 764 214 782 l 0 782 b 61 679 0 782 61 764 l 61 228 b 63 156 61 196 61 164 b 253 0 76 44 167 0 z "},"v":{"ha":676,"x_min":0,"x_max":0,"o":"m 204 0 l 282 0 b 310 28 282 15 294 28 b 338 0 325 28 338 15 l 417 0 b 381 93 368 13 369 53 l 407 197 l 428 275 l 524 646 l 532 679 b 611 779 550 744 593 771 l 621 782 l 406 782 l 417 776 b 440 679 432 765 456 739 l 432 646 l 321 218 l 310 179 l 300 218 l 189 646 l 181 679 b 204 776 165 739 189 765 l 214 782 l 0 782 l 8 779 b 88 679 28 771 71 744 l 96 646 l 192 275 l 213 197 l 239 93 l 240 93 b 204 0 251 53 251 13 z "},"w":{"ha":994,"x_min":0,"x_max":0,"o":"m 204 0 l 283 0 b 310 28 283 15 294 28 b 338 0 325 28 338 15 l 417 0 b 381 93 368 13 369 53 l 408 197 l 428 275 l 469 435 l 479 396 l 503 306 l 510 275 l 531 197 l 558 93 b 522 0 569 53 571 13 l 600 0 b 628 28 600 15 613 28 b 656 0 643 28 656 15 l 735 0 b 699 93 686 13 688 53 l 726 197 l 746 275 l 842 647 l 850 679 b 929 779 868 744 911 771 l 939 782 l 724 782 l 735 776 b 758 679 750 767 774 739 l 750 647 l 639 218 l 628 179 l 618 218 l 539 525 b 575 614 528 564 529 601 l 363 614 b 399 521 411 600 410 561 l 399 519 l 371 415 l 351 338 l 343 306 l 321 218 l 310 179 l 300 218 l 189 646 l 181 679 b 204 776 165 739 189 767 l 214 782 l 0 782 l 8 779 b 88 679 28 771 71 744 l 193 275 l 213 197 l 240 93 b 204 0 251 53 253 13 z "},"x":{"ha":675,"x_min":0,"x_max":0,"o":"m 0 0 l 94 0 b 122 28 94 15 107 28 b 150 0 138 28 150 15 l 214 0 b 207 103 214 0 164 19 l 306 294 l 310 301 l 313 294 l 411 103 b 404 0 456 19 404 0 l 469 0 b 497 28 469 15 482 28 b 524 0 513 28 524 15 l 619 0 b 504 103 619 0 549 19 l 356 392 l 367 411 l 488 646 l 504 679 b 619 782 549 764 619 782 l 404 782 b 411 679 404 782 456 764 l 394 646 l 310 481 l 224 646 l 207 679 b 214 782 164 764 214 782 l 0 782 b 114 679 0 782 71 764 l 131 646 l 253 411 l 263 392 l 114 103 b 0 0 71 19 0 0 z "},"y":{"ha":674,"x_min":0,"x_max":0,"o":"m 201 0 l 282 0 b 310 28 282 15 294 28 b 336 0 325 28 336 15 l 417 0 b 356 103 417 0 356 19 l 356 392 l 367 411 l 488 646 l 504 679 b 618 782 549 763 618 782 l 404 782 b 411 679 404 782 456 763 l 394 646 l 310 481 l 224 646 l 207 679 b 214 782 164 763 214 782 l 0 782 b 114 679 0 782 71 763 l 131 646 l 253 411 l 263 392 l 263 103 b 201 0 263 19 201 0 z "},"z":{"ha":594,"x_min":0,"x_max":0,"o":"m 0 0 l 100 0 b 128 28 100 15 113 28 b 156 0 143 28 156 15 l 539 0 l 539 168 b 417 54 539 76 472 54 l 275 54 b 196 103 207 54 174 42 l 276 294 l 324 411 l 422 646 l 435 679 b 539 782 469 763 539 782 l 0 782 l 0 615 b 122 728 0 707 67 728 l 263 728 b 343 679 306 728 358 722 l 329 646 l 104 103 b 64 42 93 78 79 57 b 0 0 32 10 0 0 z "},".":{"ha":229,"x_min":0,"x_max":0,"o":"m 86 0 b 174 75 86 0 103 75 b 86 150 103 75 86 150 b 0 75 86 150 71 75 b 86 0 71 75 86 0 z "},",":{"ha":229,"x_min":0,"x_max":0,"o":"m 33 -83 b 174 69 139 -83 100 50 b 86 144 103 69 86 144 b 0 69 86 144 71 69 b 33 -83 104 63 78 -71 z "},":":{"ha":229,"x_min":0,"x_max":0,"o":"m 86 396 b 174 471 86 396 103 471 b 86 546 103 471 86 546 b 0 471 86 546 71 471 b 86 396 71 471 86 396 z m 86 1 b 174 76 86 1 103 76 b 86 151 103 76 86 151 b 0 76 86 151 71 76 b 86 1 71 76 86 1 z "},";":{"ha":229,"x_min":0,"x_max":0,"o":"m 86 389 b 174 464 86 389 103 464 b 86 539 103 464 86 539 b 0 464 86 539 71 464 b 86 389 71 464 86 389 z m 33 -82 b 174 69 139 -82 100 50 b 86 144 103 69 86 144 b 0 69 86 144 71 69 b 33 -82 104 63 78 -71 z "},"…":{"ha":229,"x_min":0,"x_max":0,"o":"m 86 150 b 0 75 86 150 71 75 b 86 0 71 75 86 0 b 174 75 86 0 103 75 b 86 150 103 75 86 150 z "},"!":{"ha":293,"x_min":0,"x_max":0,"o":"m 61 268 l 154 268 b 176 864 161 468 168 665 b 238 967 181 949 238 967 l -24 967 b 38 864 -24 967 35 949 b 61 268 46 665 54 468 z m 0 0 l 79 0 b 107 28 79 15 92 28 b 135 0 122 28 135 15 l 214 0 b 154 103 214 0 154 19 l 154 213 l 61 213 l 61 103 b 0 0 61 19 0 0 z "},"¡":{"ha":317,"x_min":0,"x_max":0,"o":"m 83 754 l 176 754 l 176 864 b 238 967 176 949 238 967 l 158 967 b 131 940 158 951 146 940 b 103 967 115 940 103 951 l 24 967 b 83 864 24 967 83 949 z m 0 0 l 261 0 b 200 103 261 0 204 19 b 176 700 192 301 185 500 l 83 700 b 61 103 76 500 69 301 b 0 0 57 19 0 0 z "},"?":{"ha":618,"x_min":0,"x_max":0,"o":"m 83 300 b 251 485 83 404 153 465 b 0 689 767 601 297 1244 l 0 883 b 236 976 65 949 151 978 b 463 892 321 975 404 944 b 356 417 604 767 617 525 b 213 300 251 374 213 371 z m 0 0 l 110 0 b 149 25 110 14 126 25 b 186 0 169 25 186 14 l 296 0 b 213 96 296 0 213 18 l 213 197 l 83 197 l 83 96 b 0 0 83 18 0 0 z "},"*":{"ha":397,"x_min":0,"x_max":0,"o":"m 107 1049 l 233 1049 b 197 1110 233 1049 197 1060 l 197 1153 l 229 1122 b 246 1054 264 1088 246 1054 l 269 1078 l 336 1143 b 268 1161 336 1143 303 1126 l 236 1192 l 281 1192 b 342 1156 329 1192 342 1156 l 342 1282 b 281 1247 342 1282 329 1247 l 236 1247 l 268 1278 b 336 1296 303 1313 336 1296 l 313 1318 l 246 1385 b 229 1317 246 1385 264 1351 l 197 1285 l 197 1329 b 233 1390 197 1379 233 1390 l 107 1390 b 143 1329 107 1390 143 1379 l 143 1285 l 113 1317 b 94 1385 78 1351 94 1385 l 71 1361 l 29 1318 l 6 1296 b 74 1278 6 1296 39 1313 l 104 1247 l 61 1247 b 0 1282 11 1247 0 1282 l 0 1156 b 61 1192 0 1156 11 1192 l 104 1192 l 74 1161 b 6 1143 39 1126 6 1143 l 94 1054 b 113 1122 94 1054 78 1088 l 143 1153 l 143 1110 b 107 1049 143 1060 107 1049 z "},"#":{"ha":1024,"x_min":0,"x_max":0,"o":"m 89 0 l 168 0 b 201 28 171 15 186 28 b 224 0 217 28 226 15 l 303 0 b 261 103 303 0 246 19 l 279 203 l 292 272 l 601 272 l 589 203 l 571 103 b 492 0 556 19 492 0 l 571 0 b 604 28 574 15 589 28 b 626 0 619 28 629 15 l 706 0 b 664 103 706 0 649 19 l 682 203 l 693 272 l 864 272 b 968 211 949 272 968 211 l 968 425 b 864 364 968 425 949 364 l 710 364 l 753 603 l 864 603 b 968 542 949 603 968 542 l 968 756 b 864 696 968 756 949 696 l 769 696 l 799 864 b 879 967 814 949 879 967 l 664 967 b 707 864 664 967 721 949 l 689 764 l 676 696 l 367 696 l 397 864 b 476 967 411 949 476 967 l 261 967 b 304 864 261 967 319 949 l 286 764 l 274 696 l 103 696 b 0 756 19 696 0 756 l 0 542 b 103 603 0 542 19 603 l 257 603 l 215 364 l 103 364 b 0 425 19 364 0 425 l 0 211 b 103 272 0 211 19 272 l 199 272 l 186 203 l 168 103 b 89 0 153 19 89 0 z m 307 364 l 350 603 l 660 603 l 617 364 z "},"/":{"ha":549,"x_min":0,"x_max":0,"o":"m 0 0 l 214 0 l 213 1 b 194 15 208 3 201 7 l 190 19 b 183 33 188 24 185 28 b 183 103 176 50 175 72 l 213 203 l 403 864 b 450 940 414 901 432 925 b 493 967 472 961 493 967 l 279 967 b 310 864 279 967 335 949 l 281 764 l 119 203 l 90 103 b 0 0 67 19 0 0 z "},"\\":{"ha":549,"x_min":0,"x_max":0,"o":"m 279 0 l 493 0 b 403 103 493 0 426 19 l 374 203 l 213 764 l 183 864 b 214 967 160 949 214 967 l 0 967 b 43 940 0 967 21 961 b 90 864 61 925 81 901 l 281 203 l 310 103 b 311 33 319 72 317 49 b 304 19 308 28 306 24 l 299 15 b 281 1 292 7 285 3 z "},"(":{"ha":251,"x_min":0,"x_max":0,"o":"m 192 0 l 196 0 l 196 50 b 93 183 117 63 94 106 l 93 783 b 196 918 94 863 117 906 l 196 968 l 192 968 b 0 783 100 967 0 917 l 0 183 b 192 0 0 51 100 0 z "},")":{"ha":251,"x_min":0,"x_max":0,"o":"m 0 0 l 4 0 b 196 183 96 0 196 51 l 196 783 b 4 967 196 915 96 967 l 0 967 l 0 917 b 103 783 81 904 101 863 l 103 183 b 0 50 101 106 81 63 z "},"{":{"ha":313,"x_min":0,"x_max":0,"o":"m 253 0 l 257 0 l 257 50 b 154 183 176 63 156 106 l 154 381 b 93 483 154 465 93 483 b 154 588 93 483 154 503 l 154 783 b 257 918 156 863 176 904 l 257 967 l 253 967 b 61 783 160 967 61 917 l 61 588 b 0 483 61 503 0 483 b 61 381 0 483 61 465 l 61 183 b 253 0 61 51 160 0 z "},"}":{"ha":313,"x_min":0,"x_max":0,"o":"m 0 0 l 4 0 b 196 183 96 0 196 51 l 196 381 b 257 483 196 465 257 483 b 196 588 257 483 196 503 l 196 783 b 4 967 196 917 96 967 l 0 967 l 0 918 b 103 783 81 906 101 863 l 103 588 b 164 483 103 503 164 483 b 103 381 164 483 103 465 l 103 183 b 0 50 101 106 81 63 z "},"-":{"ha":631,"x_min":0,"x_max":0,"o":"m 0 415 b 104 476 0 415 19 476 l 471 476 b 575 415 556 476 575 415 l 575 569 l 0 569 z "},"‚":{"ha":229,"x_min":0,"x_max":0,"o":"m 33 -83 b 174 69 139 -83 100 50 b 86 144 103 69 86 144 b 0 69 86 144 71 69 b 33 -83 104 63 78 -71 z "},"„":{"ha":229,"x_min":0,"x_max":0,"o":"m 86 144 b 0 69 86 144 71 69 b 33 -83 104 63 78 -71 b 174 69 139 -83 100 50 b 86 144 103 69 86 144 z "},"\"":{"ha":340,"x_min":0,"x_max":0,"o":"m 33 1092 b 151 1232 126 1092 107 1194 b 144 1092 207 1199 182 1103 b 285 1244 250 1092 211 1225 b 197 1319 214 1244 197 1319 b 142 1250 197 1319 186 1268 b 86 1319 97 1268 86 1319 b 0 1244 86 1319 71 1244 b 33 1092 104 1238 78 1104 z "},"'":{"ha":229,"x_min":0,"x_max":0,"o":"m 33 1092 b 174 1244 139 1092 100 1225 b 86 1319 103 1244 86 1319 b 0 1244 86 1319 71 1244 b 33 1092 104 1238 78 1104 z "},"¢":{"ha":588,"x_min":0,"x_max":0,"o":"m 457 197 b 353 179 426 186 392 179 b 106 381 206 179 106 279 l 106 583 b 353 783 106 685 206 783 b 457 765 392 783 426 778 l 532 844 b 353 878 481 867 421 878 b 378 942 353 908 365 928 b 414 963 394 958 414 963 l 200 963 b 261 878 200 963 261 947 l 261 869 b 0 583 104 842 0 738 l 0 381 b 261 93 0 225 104 122 l 261 86 b 200 0 261 17 200 0 l 414 0 b 378 22 414 0 394 6 b 353 86 365 35 353 56 b 532 119 421 86 481 97 z "},"$":{"ha":657,"x_min":0,"x_max":0,"o":"m 188 0 l 401 0 b 340 86 401 0 340 15 b 601 310 508 100 601 203 b 340 524 601 465 467 497 l 340 775 b 468 657 422 761 468 710 l 589 725 b 340 882 557 804 472 871 b 401 967 340 951 401 967 l 188 967 b 247 882 188 967 247 951 b -12 657 81 868 -12 764 b 247 449 -12 506 121 474 l 247 193 b 121 310 167 207 121 257 l 0 243 b 247 86 31 163 117 97 b 188 0 247 15 188 0 z m 247 544 b 121 657 176 564 122 592 b 247 775 119 711 167 761 z m 340 193 l 340 428 b 468 310 413 408 468 379 b 340 193 468 257 422 207 z "},"€":{"ha":744,"x_min":0,"x_max":0,"o":"m 510 0 b 689 42 576 0 636 15 l 613 136 b 510 114 582 122 547 114 b 263 339 369 114 272 224 l 368 339 b 471 278 453 339 471 278 l 471 432 l 263 432 l 263 531 l 471 531 l 471 685 b 368 624 471 685 453 624 l 263 624 b 510 849 272 740 369 849 b 613 826 547 849 582 840 l 689 922 b 510 963 636 949 576 963 b 156 624 308 963 164 836 l 103 624 b 0 685 19 624 0 685 l 0 531 l 156 531 l 156 432 l 0 432 l 0 278 b 103 339 0 278 19 339 l 156 339 b 510 0 164 128 308 0 z "},"£":{"ha":471,"x_min":0,"x_max":0,"o":"m 381 3 l 381 93 b 115 168 268 67 226 119 l 215 426 l 315 426 l 315 513 l 208 513 l 163 629 b 408 883 169 747 267 883 l 415 883 l 415 974 l 408 974 b 56 629 207 974 61 844 l 101 513 l 36 513 l 36 426 l 119 426 l 0 104 b 381 3 128 104 219 -24 z "},"¥":{"ha":821,"x_min":0,"x_max":0,"o":"m 250 -1 l 515 -1 b 440 126 515 -1 440 22 l 440 163 l 515 163 b 618 101 599 163 618 101 l 618 254 l 440 254 l 440 354 l 618 354 l 618 507 b 515 447 618 507 599 447 l 440 447 l 440 482 l 453 507 l 624 838 b 765 965 678 942 765 965 l 500 965 b 510 838 500 965 563 942 l 489 797 l 382 593 l 256 838 b 265 965 203 942 265 965 l 0 965 b 142 838 0 965 88 942 l 313 507 l 325 482 l 325 447 l 250 447 b 147 507 167 447 147 507 l 147 354 l 325 354 l 325 254 l 147 254 l 147 101 b 250 163 147 101 167 163 l 325 163 l 325 126 b 250 -1 325 22 250 -1 z "},"+":{"ha":631,"x_min":0,"x_max":0,"o":"m 181 236 l 394 236 b 333 339 394 236 333 256 l 333 476 l 471 476 b 575 415 556 476 575 415 l 575 631 b 471 569 575 631 556 569 l 333 569 l 333 707 b 394 810 333 790 394 810 l 181 810 b 240 707 181 810 240 790 l 240 569 l 104 569 b 0 631 19 569 0 631 l 0 415 b 104 476 0 415 19 476 l 240 476 l 240 339 b 181 236 240 256 181 236 z "},"−":{"ha":631,"x_min":0,"x_max":0,"o":"m 0 415 b 104 476 0 415 19 476 l 471 476 b 575 415 556 476 575 415 l 575 569 l 0 569 z "},"=":{"ha":700,"x_min":0,"x_max":0,"o":"m 0 547 l 644 547 l 644 626 b 540 594 644 626 625 594 l 104 594 b 0 626 19 594 0 626 z m 0 415 b 104 447 0 415 19 447 l 540 447 b 644 415 625 447 644 415 l 644 496 l 0 496 z "},"^":{"ha":289,"x_min":0,"x_max":0,"o":"m 0 1164 l 67 1164 l 117 1258 l 167 1164 l 233 1164 l 194 1239 l 174 1278 b 196 1319 156 1311 196 1319 l 38 1319 b 60 1278 38 1319 78 1311 l 39 1239 z "},"%":{"ha":786,"x_min":0,"x_max":0,"o":"m 119 0 l 333 0 b 331 1 333 0 332 1 b 313 15 328 3 319 7 b 308 21 311 17 310 18 b 301 35 306 25 303 29 b 303 104 296 50 293 72 l 331 204 l 521 864 b 568 942 532 901 551 925 b 613 968 592 961 613 968 l 397 968 b 429 864 397 968 453 949 l 400 764 l 239 204 l 210 104 b 119 0 185 19 119 0 z m 0 717 b 133 832 108 717 133 832 b 265 717 133 832 157 717 b 133 849 265 790 206 849 b 0 717 60 849 0 790 z m 133 585 b 265 717 206 585 265 643 b 133 601 157 717 133 601 b 0 717 133 601 108 717 b 133 585 0 643 60 585 z m 465 251 b 599 367 574 251 599 367 b 731 251 599 367 622 251 b 599 383 731 325 671 383 b 465 251 525 383 465 325 z m 599 119 b 731 251 671 119 731 178 b 599 136 622 251 599 136 b 465 251 599 136 574 251 b 599 119 465 178 525 119 z "},"@":{"ha":938,"x_min":0,"x_max":0,"o":"m 443 0 b 814 101 588 0 714 32 l 760 181 b 447 99 675 129 568 99 b 94 492 249 99 93 276 b 475 890 97 729 264 897 b 781 536 688 882 799 710 b 654 310 767 410 710 343 b 579 283 626 293 599 285 b 558 286 569 283 563 285 l 631 808 l 543 751 l 540 735 b 400 265 226 871 129 281 b 479 285 429 264 456 274 b 538 200 469 204 517 199 b 583 197 551 196 567 196 b 689 233 615 200 653 211 b 881 525 764 279 868 372 b 475 976 899 757 729 976 b 0 492 185 976 0 751 b 443 0 0 183 208 1 z m 493 386 b 460 701 304 228 325 707 b 533 654 481 700 506 686 z "},"&":{"ha":649,"x_min":0,"x_max":0,"o":"m 243 -1 b 419 81 319 -3 379 33 l 472 7 l 593 13 l 489 163 b 522 303 511 200 524 246 l 422 303 b 418 264 422 288 421 275 l 138 665 b 239 706 161 689 194 706 b 361 638 301 706 342 676 l 432 722 b 246 810 392 774 331 808 l 243 810 b 239 810 242 810 240 810 l 238 810 b 76 754 171 810 115 788 b 10 654 44 726 22 692 l 132 485 l 140 472 b 0 247 67 438 0 354 b 243 -1 0 110 88 -4 z m 243 128 b 106 247 156 128 106 186 b 203 385 106 310 151 364 l 353 174 b 243 128 331 147 293 128 z "},"©":{"ha":1022,"x_min":0,"x_max":0,"o":"m 483 0 b 825 142 613 0 735 50 b 967 483 917 232 967 356 b 483 967 967 750 751 967 b 0 483 217 967 0 750 b 142 142 0 356 51 232 b 483 0 232 50 356 0 z m 483 111 b 219 219 385 111 290 150 b 111 483 150 290 111 385 b 483 856 111 689 278 856 b 857 483 689 856 857 689 b 747 219 857 385 817 290 b 483 111 678 150 582 111 z m 499 218 b 628 249 547 218 590 229 l 574 317 b 499 300 551 307 526 300 b 321 476 393 300 321 388 l 321 490 b 499 667 321 579 393 667 b 574 650 526 667 551 660 l 628 718 b 499 749 590 738 547 749 b 238 490 350 749 238 651 l 238 476 b 499 218 238 315 350 218 z "},"®":{"ha":1022,"x_min":0,"x_max":0,"o":"m 483 0 b 825 142 613 0 735 51 b 967 483 917 232 967 356 b 483 967 967 750 751 967 b 0 483 217 967 0 750 b 142 142 0 356 51 232 b 483 0 232 51 356 0 z m 483 111 b 219 219 385 111 290 150 b 111 483 150 290 111 385 b 483 857 111 689 278 857 b 857 483 689 857 857 689 b 747 219 857 385 817 290 b 483 111 678 150 582 111 z m 261 203 l 415 203 b 371 276 415 203 371 217 l 371 425 l 415 425 b 471 426 443 425 438 426 b 496 428 479 426 488 426 l 553 300 l 564 276 b 553 203 590 217 553 203 l 707 203 b 629 276 707 203 657 217 l 619 300 l 556 444 b 628 538 592 463 624 492 b 628 653 629 551 631 639 b 492 764 618 732 553 764 b 415 765 458 764 443 764 l 261 765 b 261 764 261 765 261 764 l 263 764 b 265 763 263 764 264 764 b 267 761 265 763 267 763 b 269 761 268 761 268 761 l 274 757 b 281 751 276 756 279 754 b 282 750 281 751 282 751 b 283 749 282 750 283 750 b 286 746 285 749 285 747 b 288 744 286 746 288 746 b 290 742 289 743 289 742 b 292 739 290 740 292 740 b 293 735 292 738 293 738 b 296 733 294 735 294 733 b 297 729 296 732 296 731 b 299 725 297 728 297 726 b 300 721 299 724 300 722 b 301 718 300 721 300 719 b 303 713 301 717 301 714 l 303 708 b 304 703 303 707 303 706 b 304 699 304 701 304 700 l 304 693 l 304 276 b 261 203 304 217 261 203 z m 467 458 b 371 540 428 458 374 479 l 371 650 b 467 732 374 711 428 732 b 563 632 514 732 561 700 l 563 558 b 467 458 561 490 514 458 z "},"™":{"ha":1390,"x_min":0,"x_max":0,"o":"m 451 -111 b 368 104 392 -96 368 19 l 368 800 b 429 926 368 881 400 926 b 490 800 460 926 490 881 l 490 588 b 440 497 490 542 468 504 b 603 622 519 497 543 622 b 583 658 592 631 583 638 l 583 864 b 644 968 583 949 644 968 l 564 968 b 536 940 564 953 551 940 b 510 968 522 940 510 953 l 0 968 b 61 864 0 968 61 949 l 61 542 b 42 507 61 522 53 514 b 204 382 101 507 125 382 b 154 472 176 389 154 425 l 154 800 b 215 926 154 881 185 926 b 276 800 244 926 276 881 l 276 104 b 215 0 276 19 215 0 l 294 0 b 322 28 294 15 307 28 b 350 0 338 28 350 15 b 335 -24 350 -10 344 -19 b 451 -111 367 -81 397 -111 z m 1376 -112 b 1293 103 1317 -96 1293 18 l 1293 863 b 1354 967 1293 947 1354 967 l 1140 967 l 1142 965 l 1006 669 l 869 965 b 872 967 871 967 872 967 l 658 967 b 718 863 658 967 718 947 l 718 103 b 658 0 718 18 658 0 l 738 0 b 765 26 738 14 750 26 b 793 0 781 26 793 14 l 872 0 b 811 103 872 0 811 18 l 811 771 b 849 844 811 899 829 879 l 979 535 b 1011 343 992 503 1047 371 b 1051 569 1122 407 1072 514 l 1164 844 b 1200 771 1182 879 1200 899 l 1200 103 b 1140 0 1200 18 1140 0 l 1219 0 b 1247 26 1219 14 1232 26 b 1275 0 1263 26 1275 14 b 1260 -25 1275 -11 1269 -19 b 1376 -112 1292 -81 1322 -112 z "},"|":{"ha":269,"x_min":0,"x_max":0,"o":"m 0 0 l 214 0 l 211 1 b 190 15 207 3 199 7 l 183 19 b 172 33 181 24 176 28 b 154 103 163 50 154 72 l 154 864 b 178 940 154 901 165 925 b 214 967 194 961 214 967 l 0 967 b 61 864 0 967 61 949 l 61 103 b 0 0 61 19 0 0 z "},"̈":{"ha":0,"x_min":0,"x_max":0,"o":"m -654 992 b -604 1035 -654 992 -644 1035 b -654 1078 -644 1035 -654 1078 b -704 1035 -654 1078 -664 1035 b -654 992 -664 1035 -654 992 z m -542 992 b -492 1035 -542 992 -532 1035 b -542 1078 -532 1035 -542 1078 b -592 1035 -542 1078 -551 1035 b -542 992 -551 1035 -542 992 z "},"̇":{"ha":0,"x_min":0,"x_max":0,"o":"m -639 1050 b -578 1103 -589 1050 -578 1103 b -517 1050 -578 1103 -567 1050 b -578 1111 -517 1083 -544 1111 b -639 1050 -612 1111 -639 1083 z m -578 989 b -517 1050 -544 989 -517 1017 b -578 997 -567 1050 -578 997 b -639 1050 -578 997 -589 1050 b -578 989 -639 1017 -612 989 z "},"̀":{"ha":0,"x_min":0,"x_max":0,"o":"m -515 1001 b -672 1182 -560 1099 -618 1133 b -600 1015 -618 1090 -603 1029 b -515 1001 -572 1021 -544 1015 z "},"́":{"ha":0,"x_min":0,"x_max":0,"o":"m -618 988 b -535 1001 -589 1001 -561 1007 b -461 1169 -532 1015 -517 1076 b -618 988 -517 1119 -575 1085 z "},"̂":{"ha":0,"x_min":0,"x_max":0,"o":"m -681 992 l -633 992 l -600 1049 l -567 992 l -519 992 l -522 999 l -543 1038 b -521 1079 -561 1071 -521 1079 l -679 1079 b -657 1038 -679 1079 -639 1071 l -678 999 z "},"̊":{"ha":0,"x_min":0,"x_max":0,"o":"m -639 1050 b -578 1103 -589 1050 -578 1103 b -517 1050 -578 1103 -567 1050 b -578 1111 -517 1083 -544 1111 b -639 1050 -612 1111 -639 1083 z m -578 989 b -517 1050 -544 989 -517 1017 b -578 997 -567 1050 -578 997 b -639 1050 -578 997 -589 1050 b -578 989 -639 1017 -612 989 z "},"̃":{"ha":0,"x_min":0,"x_max":0,"o":"m -731 989 b -614 1025 -707 1018 -690 1058 b -453 1065 -497 974 -453 1065 b -601 1069 -453 1065 -503 1028 b -643 1078 -617 1076 -631 1079 b -731 989 -708 1076 -731 989 z "}}}
